<svg id="Calque_1" data-name="Calque 1" xmlns="http://www.w3.org/2000/svg" viewBox="0 0 373.63 264.4"><defs><style>.cls-1{fill:#984634;}</style></defs><path class="cls-1" d="M247.62,6.67c-.93,0-1.93-1.45-2.14-3.11A3.57,3.57,0,0,1,245.9.87a1,1,0,0,1,.77-.37c.78,0,1.57.91,1.7,1.94a18.7,18.7,0,0,0,.2,2.48,1.83,1.83,0,0,1-.31,1.47A.86.86,0,0,1,247.62,6.67Z" transform="translate(-0.01 0)"/><path class="cls-1" d="M246.62,1c.5,0,1.1.7,1.2,1.5A19,19,0,0,0,248,5c.08.82-.13,1.17-.45,1.17-.56,0-1.45-1.13-1.65-2.67s.1-2.5.7-2.5m0-1a1.48,1.48,0,0,0-1.14.54,4.21,4.21,0,0,0-.55,3.1c.25,1.94,1.43,3.53,2.64,3.53a1.35,1.35,0,0,0,1-.44A2.26,2.26,0,0,0,249,4.92V4.84a16.66,16.66,0,0,1-.19-2.34V2.38A2.59,2.59,0,0,0,246.62,0Z" transform="translate(-0.01 0)"/><path class="cls-1" d="M228.94,12.5a4,4,0,0,1-3.23-2,1.54,1.54,0,0,1,0-1.64A1.43,1.43,0,0,1,227,8a2.6,2.6,0,0,1,1.59.79c1.17.93,1.81,2.22,1.52,3a1.12,1.12,0,0,1-1.14.73Z" transform="translate(-0.01 0)"/><path class="cls-1" d="M227,8.43a2.32,2.32,0,0,1,1.27.67c1.5,1.2,1.9,2.9.7,2.9-1.8-.1-3.5-1.9-2.8-2.9.25-.45.5-.67.83-.67m0-1a2,2,0,0,0-1.68,1.15,2.08,2.08,0,0,0-.05,2.09A4.5,4.5,0,0,0,228.91,13h0a1.62,1.62,0,0,0,1.71-1.09c.37-1.05-.33-2.53-1.68-3.62A3.24,3.24,0,0,0,227,7.4Z" transform="translate(-0.01 0)"/><path class="cls-1" d="M266.62,14.5a1,1,0,0,1-.86-.48c-.41-.7-.19-2,.6-3.45s1.17-1.9,1.67-1.9c.68,0,.82.84,1,1.65a4.07,4.07,0,0,1-.84,3.34,2.36,2.36,0,0,1-1.54.84Z" transform="translate(-0.01 0)"/><path class="cls-1" d="M268,9.17c.21,0,.33.43.47,1.23a3.56,3.56,0,0,1-.7,2.9,1.9,1.9,0,0,1-1.18.7c-.74,0-.81-1.34.18-3.2.64-1.1,1-1.63,1.23-1.63m0-1c-.84,0-1.29.73-2.09,2.14-.9,1.67-1.12,3.11-.61,4a1.46,1.46,0,0,0,1.29.73,2.79,2.79,0,0,0,1.89-1,4.55,4.55,0,0,0,1-3.8c-.15-.85-.36-2-1.46-2Z" transform="translate(-0.01 0)"/><path class="cls-1" d="M243.46,39.24a3.41,3.41,0,0,1-2.33-.66,7,7,0,0,0-2.12-1.2c-6.9-1.44-8.69-4.18-7.34-11.27.6-3.39,5.19-9.36,8-9.7a8.68,8.68,0,0,0,.89-.15l.88-.15a2.17,2.17,0,0,0,1.4-.72,3.35,3.35,0,0,1,2.46-1c4.22,0,10.82,6.53,11.53,13,.82,6.67-1.24,9.38-8.48,11.14a24.09,24.09,0,0,1-4.92.75Zm-3.3-5.94a34.14,34.14,0,0,1,5.61.61,10.44,10.44,0,0,0,2,.26c1.27,0,2.13-.45,3.86-2a9.27,9.27,0,0,0,2.53-3.26c0-2.34-2.92-7.34-3.8-7.4a3.15,3.15,0,0,1-2.54-1.77,1.84,1.84,0,0,0-1.36-1.23c-2.06,0-7.18,3.64-7.82,5.56-.29,1.17-1.09,2.44-2,2.44a4.58,4.58,0,0,0-.81,1.73,3.74,3.74,0,0,0,.84,3.19A4.48,4.48,0,0,0,240,33.31Z" transform="translate(-0.01 0)"/><path class="cls-1" d="M245.33,14.91c4,0,10.37,6.5,11,12.51.8,6.5-1.1,8.9-8.1,10.6a23.62,23.62,0,0,1-4.8.74,2.92,2.92,0,0,1-2-.54,7.81,7.81,0,0,0-2.3-1.3c-6.7-1.4-8.3-3.9-7-10.7.6-3.4,5.1-9,7.6-9.3.5-.1,1.3-.2,1.8-.3a2.58,2.58,0,0,0,1.7-.9,2.85,2.85,0,0,1,2.07-.81M240,33.82h.12a31.7,31.7,0,0,1,5.5.6,10.69,10.69,0,0,0,2.11.27c1.48,0,2.48-.6,4.19-2.17,1.5-1.4,2.7-3,2.7-3.6,0-2.4-3-7.9-4.3-7.9a2.68,2.68,0,0,1-2.1-1.5,2.26,2.26,0,0,0-1.8-1.5c-2.3,0-7.6,3.8-8.3,5.9-.3,1.2-1,2.1-1.5,2.1s-1,1-1.3,2.1c-.68,2.56,2,5.7,4.68,5.7m5.32-19.91A3.81,3.81,0,0,0,242.56,15h0v.05a1.67,1.67,0,0,1-.92.52h-.19c-.24,0-.55.1-.86.14l-1,.18c-3.1.43-7.79,6.55-8.42,10.12-1.4,7.33.55,10.33,7.72,11.84A7,7,0,0,1,240.83,39a3.83,3.83,0,0,0,2.65.78,23.43,23.43,0,0,0,5-.76c7.58-1.84,9.73-4.69,8.87-11.7-.68-6.13-7.2-13.39-12-13.39Zm-6.21,10.3c.62-1.72,5.52-5.19,7.34-5.19a1.36,1.36,0,0,1,.87.85v.05h0a3.73,3.73,0,0,0,2.9,2c.92.5,3.35,4.86,3.39,6.85a10.49,10.49,0,0,1-2.38,2.92c-1.62,1.49-2.38,1.9-3.51,1.9a9.33,9.33,0,0,1-1.9-.25,33.14,33.14,0,0,0-5.71-.62H240a4,4,0,0,1-2.95-1.69,3.28,3.28,0,0,1-.76-2.75,4.38,4.38,0,0,1,.63-1.39c1.05-.21,1.84-1.53,2.16-2.78Z" transform="translate(-0.01 0)"/><path class="cls-1" d="M132.38,46.68c-4.74,0-5.51-.32-5.91-2.49-.13-.9-.19-1.56.21-2a1.78,1.78,0,0,1,1.39-.46,25.4,25.4,0,0,1,3.37.4,36.23,36.23,0,0,0,6.73.68c1.43,0,3.17-.08,5.47-.19,3-.09,3.16-.09,4.55-4.55,1.75-5.55,5.1-7.84,12-8.15,3.36-.1,3.55-.52,3.63-1.73a13.34,13.34,0,0,1,5.42-9.89c1.92-1.15,6.26-1.76,9.38-1.76s4.59.51,4.59,1.58a1,1,0,0,1-1,1H182a9.8,9.8,0,0,0,2.51,1.44c1.59.67,2.72,2,2.72,3.26a1.63,1.63,0,0,0,.19.92c.07.08.2.19.63.19a5.51,5.51,0,0,0,.9-.1,3.84,3.84,0,0,1,.76-.08c2.36,0,5.52,2.16,5.52,4.37,0,.83-.76,1.39-1.9,1.39a3,3,0,0,1-2.52-1.23c-.15-.29-1.32-.76-3.18-.76-2.5,0-3.4-.47-3.4-3.1A3.76,3.76,0,0,0,184,24a1,1,0,0,1-.53.12,12.86,12.86,0,0,1-4.88-1.73c-1.93-1-3-1.42-3.91-1.42a3.83,3.83,0,0,0-1.91.62,8.9,8.9,0,0,1-3.16,1.15h-.18a2.17,2.17,0,0,0-.67,1.06.54.54,0,0,1-.07.19,1.74,1.74,0,0,1,.55-.11,1,1,0,0,1,.95.93.57.57,0,0,1,0,.13,2.78,2.78,0,0,1-1.24,2c-.25.13-.48,1-.17,2.36a4.07,4.07,0,0,1-.92,3.48,5.8,5.8,0,0,1-4.35,2.16,4,4,0,0,1-2-.5,5.6,5.6,0,0,0-2.66-.62,7.24,7.24,0,0,0-6.35,3.71,19.13,19.13,0,0,0-1.88,5.28c0,.39-.22,2.47-.82,3.06-.24.28-1.17.59-11.67.76C135.74,46.65,133.85,46.68,132.38,46.68Z" transform="translate(-0.01 0)"/><path class="cls-1" d="M178.62,17c2.3,0,4.09.33,4.09,1.08a.48.48,0,0,1-.44.52h-.08a1.37,1.37,0,0,1-.68-.22,1.17,1.17,0,0,0-.53-.27c-.17,0-.12.27.13.77a8,8,0,0,0,3.2,2.1,3.63,3.63,0,0,1,2.4,2.8c0,1.17.37,1.61,1.32,1.61a5.57,5.57,0,0,0,1-.11,3.82,3.82,0,0,1,.68-.07c2.24,0,5,2.06,5,3.87,0,.59-.64.89-1.4.89a2.48,2.48,0,0,1-2.1-1c-.3-.6-1.9-1-3.6-1-2.4,0-2.9-.4-2.9-2.6,0-1.17-.28-2-.66-2a.42.42,0,0,0-.24.09.61.61,0,0,1-.35.07,12.92,12.92,0,0,1-4.7-1.64c-2-1-3.14-1.48-4.14-1.48a4.36,4.36,0,0,0-2.16.68,8.78,8.78,0,0,1-2.84,1.1h-.2c-.31,0-.85.58-1.13,1.41-.23.62-.22,1,.07,1a.75.75,0,0,0,.33-.1,1.34,1.34,0,0,1,.56-.16c.28,0,.44.18.44.56a2.34,2.34,0,0,1-1,1.6c-.6.3-.7,1.6-.4,2.9.57,2.52-2.16,5-4.76,5a3.63,3.63,0,0,1-1.74-.44,6.22,6.22,0,0,0-2.9-.68,7.77,7.77,0,0,0-6.8,4,19.3,19.3,0,0,0-1.9,5.4,5.7,5.7,0,0,1-.7,2.8c-.2.3-5.3.5-11.3.6-2.43,0-4.31.08-5.78.08-4.86,0-5.11-.39-5.42-2.08-.19-1.37-.17-1.89,1.11-1.89a26.12,26.12,0,0,1,3.29.39,37,37,0,0,0,6.81.69c1.4,0,3.06-.07,5.49-.19,3.3-.1,3.6-.4,5-4.9,1.7-5.4,4.9-7.5,11.5-7.8,3.3-.1,4-.5,4.1-2.2a12.83,12.83,0,0,1,5.2-9.5c1.75-1,5.92-1.68,9.11-1.68m0-1c-3.18,0-7.64.64-9.62,1.82a13.87,13.87,0,0,0-5.68,10.31c-.06.89-.07,1.16-3.14,1.25-7.12.33-10.6,2.71-12.42,8.5-1.28,4.12-1.28,4.12-4.08,4.2-2.3.11-4,.19-5.46.19a36.12,36.12,0,0,1-6.64-.67,25.13,25.13,0,0,0-3.46-.41,2.28,2.28,0,0,0-1.77.64,2.91,2.91,0,0,0-.33,2.39c.49,2.66,1.73,2.94,6.41,2.94,1.49,0,3.39,0,5.8-.08,10.94-.18,11.7-.46,12.06-1a6.46,6.46,0,0,0,.92-3.32,18.53,18.53,0,0,1,1.78-5,6.73,6.73,0,0,1,5.92-3.47,5.15,5.15,0,0,1,2.44.57,4.44,4.44,0,0,0,2.2.55,6.27,6.27,0,0,0,4.72-2.36,4.63,4.63,0,0,0,1-3.9,3.35,3.35,0,0,1,0-1.83,3.34,3.34,0,0,0,1.37-2.43,1.44,1.44,0,0,0-1.18-1.54l.11-.15A9.81,9.81,0,0,0,172.9,22a3.47,3.47,0,0,1,1.68-.56c.8,0,1.87.46,3.7,1.38a13.56,13.56,0,0,0,5.09,1.77h.25a5.93,5.93,0,0,1,.06.84c0,3,1.32,3.6,3.9,3.6a5.79,5.79,0,0,1,2.75.51h0A3.54,3.54,0,0,0,193.28,31c1.42,0,2.4-.78,2.4-1.89,0-2.51-3.39-4.87-6-4.87a3.8,3.8,0,0,0-.89.1,4.9,4.9,0,0,1-.77.08,1,1,0,0,1-.25,0,1.62,1.62,0,0,1-.07-.58,4.49,4.49,0,0,0-3-3.72,9.18,9.18,0,0,1-1.57-.78,1.48,1.48,0,0,0,.57-1.2c0-1.87-2.9-2.08-5.09-2.08Z" transform="translate(-0.01 0)"/><path class="cls-1" d="M217.62,28.5c-1.33,0-2.29-.55-2.43-1.39-.11-.61.25-1.42,1.57-1.88a3.6,3.6,0,0,1,1.17-.2,2,2,0,0,1,2.18,1.8,2.44,2.44,0,0,1,0,.27C220.16,28,218.91,28.5,217.62,28.5Z" transform="translate(-0.01 0)"/><path class="cls-1" d="M218,25.53a1.53,1.53,0,0,1,1.65,1.38v.19c0,.5-.9.9-2,.9-2.2,0-2.7-1.6-.7-2.3a3.09,3.09,0,0,1,1-.17m0-1a4.25,4.25,0,0,0-1.32.22c-1.63.57-2.06,1.63-1.92,2.44.19,1.1,1.34,1.81,2.93,1.81,1.77,0,3-.78,3-1.9a2.53,2.53,0,0,0-2.46-2.58Z" transform="translate(-0.01 0)"/><ellipse class="cls-1" cx="266.65" cy="28" rx="2.5" ry="1.5"/><path class="cls-1" d="M266.62,27c1.1,0,2,.4,2,1s-.9,1-2,1-2-.5-2-1,.9-1,2-1m0-1c-1.76,0-3,.82-3,2s1.32,2,3,2,3-.88,3-2S268.39,26,266.62,26Z" transform="translate(-0.01 0)"/><path class="cls-1" d="M221.07,49.5a1.44,1.44,0,0,1-1.34-.6c-.34-.7.12-1.71,1.83-4,.6-.73,1.11-1.07,1.56-1.07a.8.8,0,0,1,.67.34c.36.49.31,1.46-.15,2.88A3.08,3.08,0,0,1,221.07,49.5Z" transform="translate(-0.01 0)"/><path class="cls-1" d="M223.12,44.33c.49,0,.56,1,0,2.57A2.65,2.65,0,0,1,221,49c-1.5,0-1.2-1,.9-3.8.5-.59.89-.87,1.16-.87m0-1a2.66,2.66,0,0,0-1.93,1.24c-1.67,2.23-2.41,3.53-1.9,4.55A1.79,1.79,0,0,0,221,50a3.58,3.58,0,0,0,3.07-2.82c.5-1.59.52-2.67.06-3.3A1.31,1.31,0,0,0,223.08,43.33Z" transform="translate(-0.01 0)"/><path class="cls-1" d="M295.33,58.5c-.39,0-.57-.24-1.57-1.6-1.48-1.94-.91-4.86,0-6.77,1.11-2.24,2.86-3.63,4.57-3.63.42,0,.8-.28.8-.6,0-.55.45-1.11,1.44-1.11a3.79,3.79,0,0,1,1.24.24,2.77,2.77,0,0,0,.9.18c.42,0,.42-.14.42-.21,0-1,.64-1.15.91-1.15.75,0,2,.76,5.69,3.55,1.64,1.25,3.4,3.21,3.4,4.2a2,2,0,0,1-.27,1.13,1.14,1.14,0,0,1-1,.5h0c-1,0-2.46-1-4.59-3.07-1.55-1.47-2.65-2.08-3.79-2.08a3.48,3.48,0,0,0-.85.11c-3.06.65-7.39,5.67-7,8.14.27,1.4.32,1.69.09,2l-.15.19Z" transform="translate(-0.01 0)"/><path class="cls-1" d="M304.07,44.35c.64,0,2.15,1,5.39,3.45,1.7,1.3,3.2,3.1,3.2,3.8s-.25,1.13-.75,1.13c-.81,0-2.26-1-4.25-2.93-1.61-1.53-2.83-2.22-4.13-2.22a4.21,4.21,0,0,0-1,.12c-3.3.7-7.8,6-7.4,8.7.21,1.08.31,1.6.17,1.6s-.48-.47-1.17-1.4c-2.3-3,.7-9.6,4.2-9.6a1.22,1.22,0,0,0,1.29-1.09c0-.39.38-.61.94-.61a3.22,3.22,0,0,1,1.06.21,3.34,3.34,0,0,0,1.08.21c.58,0,.92-.25.92-.71s.11-.65.41-.65m0-1a1.39,1.39,0,0,0-1.39,1.35,2.09,2.09,0,0,1-.7-.15,4.33,4.33,0,0,0-1.38-.26,2.22,2.22,0,0,0-1.21.32,1.51,1.51,0,0,0-.73,1.29.47.47,0,0,1-.3.1c-1.9,0-3.83,1.5-5,3.91-1.33,2.68-1.32,5.55,0,7.3,1.07,1.45,1.32,1.79,2,1.79h.47l.34-.38c.38-.46.3-.87,0-2.4-.29-2,3.68-6.92,6.62-7.54a2.78,2.78,0,0,1,.76-.1c1,0,2,.57,3.45,2,2.92,2.83,4.17,3.2,4.93,3.2s1.75-.56,1.75-2.13-2.59-3.83-3.59-4.59c-3.92-2.94-5.1-3.66-6-3.66Z" transform="translate(-0.01 0)"/><path class="cls-1" d="M264.27,51.15a4.13,4.13,0,0,1-1.75-.71c-1.16-.58-2.36-1.6-2.36-2.54a1.32,1.32,0,0,1,1.27-1.37h.19A3.69,3.69,0,0,1,265,49.22c.16.86.19,1.33-.09,1.66a.74.74,0,0,1-.6.27Z" transform="translate(-0.01 0)"/><path class="cls-1" d="M261.62,47a3.2,3.2,0,0,1,2.87,2.26c.18.93.18,1.35-.19,1.35a4.41,4.41,0,0,1-1.51-.65c-1.2-.6-2.1-1.5-2.1-2.1a.83.83,0,0,1,.77-.87h.16m0-1a1.8,1.8,0,0,0-2,1.59,2.62,2.62,0,0,0,0,.28c0,1.23,1.43,2.38,2.66,3a4.44,4.44,0,0,0,2,.75,1.29,1.29,0,0,0,1-.45c.44-.53.35-1.22.19-2.08a4.2,4.2,0,0,0-3.8-3.09Z" transform="translate(-0.01 0)"/><path class="cls-1" d="M242.62,56.5c-.72,0-1.5-.31-1.5-.9a17.42,17.42,0,0,0-.57-1.84,1.81,1.81,0,0,1,0-1.69A1.68,1.68,0,0,1,242,51.5a2.25,2.25,0,0,1,2.1,2.39s0,.07,0,.11C244.16,55.47,243.55,56.5,242.62,56.5Z" transform="translate(-0.01 0)"/><path class="cls-1" d="M242.06,52c.9,0,1.6.8,1.6,2s-.4,2-1,2-1-.2-1-.4a17.06,17.06,0,0,0-.6-2c-.4-1.1-.1-1.6,1-1.6m0-1a2.13,2.13,0,0,0-1.86.79,2.36,2.36,0,0,0-.08,2.12c.2.58.5,1.48.55,1.73,0,.88,1,1.33,2,1.33,1.18,0,2-1.23,2-3a2.75,2.75,0,0,0-2.48-3h-.12Z" transform="translate(-0.01 0)"/><path class="cls-1" d="M320.9,78.64h-1.27c-1.16,0-1.87-.08-2-.66s.44-1.09,3.09-2.85a10.38,10.38,0,0,0,4.09-5c.39-1.54.8-3.51,1.11-4.44a4.38,4.38,0,0,0-1.3-3c-1.46-1.84-3.54-3.22-4.84-3.22a7.87,7.87,0,0,0-4.16,2.41c-1.73,1.73-2.77,2.43-3.57,2.43a1.24,1.24,0,0,1-.89-.37c-.6-.63-.8-2-.7-4.94.11-5.36,1-5.36,1.44-5.36.68,0,1.15.83,1.65,2.86.38,1.52.65,1.53.66,1.53s.19,0,.54-.3A3.69,3.69,0,0,1,317,57a3.19,3.19,0,0,1,1.33.26l.41.11a1.24,1.24,0,0,1-.12-1.26,1.46,1.46,0,0,1,1.4-.6c1.65,0,4.44,1.06,6.78,2.58,2.19,1.3,4.35,3.4,4.7,4.58.77,2.4-.79,7.25-3.2,10-.8.81-1,1.57-.92,1.73a3.63,3.63,0,0,0,2.22.78,1.15,1.15,0,0,0,.55-.1c0-1.22,3.33-1.24,3.47-1.24,1.2,0,3.15.12,3.46.88a14.16,14.16,0,0,0,3.84.32c1.42,0,4.7.15,4.7,1.5,0,1-1.54,1.32-3,1.32h-.54c-2.36-.16-4.7-.24-6.95-.24a68.18,68.18,0,0,0-11.94.93A16.45,16.45,0,0,1,320.9,78.64Z" transform="translate(-0.01 0)"/><path class="cls-1" d="M311.9,54.12c.35,0,.76.81,1.16,2.48.34,1.34.67,1.91,1.15,1.91a1.45,1.45,0,0,0,.85-.41,3.24,3.24,0,0,1,2-.61,2.69,2.69,0,0,1,1.12.21,4.27,4.27,0,0,0,1,.23c.37,0,.37-.23.05-.73-.5-.82-.11-1.2.8-1.2a14.44,14.44,0,0,1,6.5,2.5c2.2,1.3,4.2,3.3,4.5,4.3.7,2.2-.8,6.9-3.1,9.5-.9.9-1.3,2-.9,2.4a4,4,0,0,0,2.58.94c.59,0,1-.17,1-.54s1.4-.8,3-.8,3,.3,3,.6,1.9.6,4.3.6,4.2.4,4.2,1-1,.82-2.48.82h-.52q-3.62-.24-7-.24a69,69,0,0,0-12,.94,15.5,15.5,0,0,1-2.26.14h-1.24c-2.3-.1-2.3-.2,1.3-2.6a10.73,10.73,0,0,0,4.3-5.3c.3-1.5.8-3.5,1.1-4.4.5-2.2-3.9-6.8-6.6-6.8-1.1,0-3.1,1.1-4.5,2.5s-2.53,2.29-3.21,2.29c-.95,0-1.2-1.53-1.09-4.79s.44-4.88.94-4.88m0-1c-1.33,0-1.86,1.59-1.94,5.86-.11,3.1.12,4.54.84,5.29a1.73,1.73,0,0,0,1.25.52c1,0,2.06-.72,3.92-2.58a7.58,7.58,0,0,1,3.79-2.21c1.14,0,3.1,1.33,4.45,3a4.11,4.11,0,0,1,1.19,2.52c-.32,1-.81,2.94-1.12,4.46a9.86,9.86,0,0,1-3.88,4.67c-2.74,1.82-3.57,2.38-3.28,3.4s1.25,1,2.5,1h1.28a16.52,16.52,0,0,0,2.43-.15A67.35,67.35,0,0,1,335.14,78c2.24,0,4.56.08,6.91.24h.58c2.18,0,3.48-.68,3.48-1.82,0-1.32-1.74-2-5.2-2a18.35,18.35,0,0,1-3.47-.23c-.33-.47-1.24-1-3.83-1-.84,0-3.39.11-3.9,1.34h-.09a3.32,3.32,0,0,1-1.71-.51,3,3,0,0,1,.74-1.12h0c2.51-2.83,4.12-7.92,3.31-10.46-.44-1.47-2.86-3.63-4.95-4.86-2.37-1.54-5.27-2.64-7-2.64a1.92,1.92,0,0,0-1.84.86,1.41,1.41,0,0,0-.18.75,4.42,4.42,0,0,0-3.63.73h-.05a9,9,0,0,1-.33-1c-.47-1.94-1-3.24-2.13-3.24Z" transform="translate(-0.01 0)"/><path class="cls-1" d="M264.15,81.54c-3.45,0-5-.47-5-1.54,0-.7,0-2.15,12.48-2.8l5-.18-.26-3.28a12.13,12.13,0,0,1,3.25-9.23,11.88,11.88,0,0,1,8.68-4,10,10,0,0,1,2.61.34,4.87,4.87,0,0,0,1,.17h0a3.28,3.28,0,0,0-.18-.61c-.36-.9-.49-1.3-.27-1.61l.14-.22h.32c.31,0,.57.16,1.63,1.22,1.57,1.51,1.57,2.63,1.3,3.31-.44,1.09-1.89,1.7-4.09,1.7h0a8.52,8.52,0,0,1-1.21-.06,16.8,16.8,0,0,0-1.88-.13c-1.83,0-2.87.51-4.83,2.39-2.4,2.4-2.73,3.25-2.35,6.08.3,2,.14,4.34-.36,5.21C278.82,80.3,269.05,81.54,264.15,81.54Z" transform="translate(-0.01 0)"/><path class="cls-1" d="M291.89,59c.15,0,.55.35,1.27,1.07,2.46,2.37,1.27,4.16-2.43,4.16q-.54,0-1.17-.06a17.69,17.69,0,0,0-1.92-.13c-2,0-3.21.65-5.18,2.53-2.5,2.5-2.9,3.5-2.5,6.5a10.17,10.17,0,0,1-.3,4.9c-1,1.64-9.94,3-15.51,3-2.61,0-4.49-.31-4.49-1,0-1.1,4.3-1.9,12-2.3l5.5-.2-.3-3.8C276.25,67,282,61,288.28,61a9.87,9.87,0,0,1,2.48.32,5.17,5.17,0,0,0,1.1.19c.61,0,.66-.37.3-1.29s-.43-1.17-.27-1.17m0-1a1.07,1.07,0,0,0-.88.46c-.35.52-.16,1.1.14,1.88H291a10.93,10.93,0,0,0-2.73-.35,12.39,12.39,0,0,0-9,4.2,12.62,12.62,0,0,0-3.36,9.61l.22,2.75-4.46.16c-12,.62-13,2-13,3.3,0,1.8,2.78,2,5.49,2,4,0,14.82-1,16.36-3.51.64-1.12.72-3.7.44-5.58-.35-2.65-.08-3.34,2.22-5.64,1.85-1.78,2.78-2.24,4.47-2.24a15.57,15.57,0,0,1,1.81.13c.46,0,.89.06,1.28.06,2.42,0,4-.72,4.56-2,.32-.81.34-2.15-1.43-3.86-1.05-1-1.44-1.35-2-1.35Z" transform="translate(-0.01 0)"/><path class="cls-1" d="M162.15,262.23c-10.46,0-28.35-.1-30.62-.75-1.76-.49-10.54-1-19.17-1.08-9,0-20.41-.52-25.14-.9s-14-1.18-20.58-1.5c-5.81-.37-13-1.07-15.1-1.61a9.78,9.78,0,0,0-2.4-.39c-.58,0-.78.13-.8.16a1.36,1.36,0,0,1-1.26,1,1.26,1.26,0,0,1-.54-.13c-1.15-.37-22.93-1.54-36.09-1.85-3.63-.14-4.82-.43-5.09-1.24s.39-1.43,1.48-2.34a2.48,2.48,0,0,1,1.47-.81c.14,0,.85.06.85,1.09a.69.69,0,0,0,.23.54c.58-1.73,1-13.68,2.17-52.95.3-11.36.8-24.29,1.11-28.23l.54-6.63-2.24.46a8.3,8.3,0,0,1-1.57.18,3.66,3.66,0,0,1-3-1.35c-1.41-1.66-.54-3.43,3.67-9.6,4.43-6.58,4.32-7.92,4.18-8.17-.53-.79-.44-2.38,3.83-8.44,5.17-7.28,14-18.85,15.2-19.36a100.18,100.18,0,0,0,6.91-8.06l2-2.42c3-3.6,5.6-6.71,6.51-7.62.7-.7,1.62-1.76,2.51-2.79.6-.69,1.19-1.37,1.68-1.9a31.37,31.37,0,0,1,4.17-4.06,101.79,101.79,0,0,0,8.1-9.5c6.92-9.23,9-10.3,19.89-10.4a35,35,0,0,0,6.13-.42,2,2,0,0,1,1.29-.29,8.34,8.34,0,0,1,2.22.33,36.52,36.52,0,0,0,7.08.51h1.87c1.79,0,4.17,0,6.59,0s5,0,6.92,0h11.47a14.53,14.53,0,0,1,6,1.17,1.14,1.14,0,0,1,.09-.26c.3-.52,1.1-.7,3.08-.7,1.37,0,3.34.09,6.56.29,5.65.32,12.83,1,16.35,1.61,3.7.51,9,1.2,12,1.49,5.33.41,12,1.53,13,3.31a1.07,1.07,0,0,1,.08,1c-.29,1-12.66,19.41-15.14,23.08-9.53,14.29-14.66,22.68-14.82,23.58a7,7,0,0,1-2.19,3.54c-1.55,1.18-15.3,22.12-18.56,28.63-1.74,3.18-2,6-2,27.57,0,23.44-1,24.55-1.52,24.6a1,1,0,0,0,.21.38c1,1.65.72,41.48-.21,44.47a.77.77,0,0,0,.07.75c.19.25.77.66,2.6.66a20.14,20.14,0,0,0,2.19-.15h.25a1.46,1.46,0,0,1,1.51,1.41h0a.57.57,0,0,0,.5.5c.27,0,.5-.47.5-1,0-1.12.62-2,1.4-2,1,0,2.65,1.46,2.84,1.63a5.51,5.51,0,0,0,3.27,1.36h.27l-.14-.25.1-.31c.15-.29.41-.84,8.35-1,7.65,0,8.27.41,8.43.68a48,48,0,0,0,6.23.26c4.4,0,7.48-.21,7.94-.43.22-.16.84-.35,4.76-.35h3l6.59.1.19-9.61c.11-5.74.32-13.52.4-16.6.1-3.49,0-10.5-.29-15.76l-.48-8.73h-7.36c-7,0-8.21.79-8.42,1-1.45,1.86-2.08,12.85-2.68,31.19-.14,4.73-.37,9.33-.66,13-.46,5.82-.72,5.82-1.24,5.82a.68.68,0,0,1-.53-.26c-1.91-2.24-1.23-35.56.54-46.91,1.08-7.34,2.75-7.83,13.89-7.83,8,0,10.26.36,10.4,1.65,0,.46.35,48.39.09,49.56-.36,2.11.17,3.74,1.4,4.23l.3.09.06-.23c.43-.87,5.29-1,8.15-1a74.74,74.74,0,0,0,11.29-.68,11.72,11.72,0,0,1,2.35-.43,1.12,1.12,0,0,1,.95.4c.32.45.14,1.07-.11,1.78V258h0c1.06-.79,4.73-1.44,7.69-1.62l5.54-.37.19-20c.08-8.65.28-23.9.46-37.37l.14-11.53.5-28.29-3.85-8c-2-4.26-4.95-9.92-6.38-12.37a62.56,62.56,0,0,1-4.33-8.57,22.35,22.35,0,0,0-3.31-5.84,30.94,30.94,0,0,1-3.37-5.31,12.59,12.59,0,0,0-2.31-3.7,3,3,0,0,1-1.25-2.53c0-1.8-7.37-11.32-14.59-20.39-2.39-3-6.41-8.16-6.41-8.91a8.93,8.93,0,0,0-1.88-2.78c-.78-.9-2.56-3.15-2-4.28a1,1,0,0,1,.92-.54c2.61,0,11.13,8.5,16,15.21,3.52,4.86,7.42,10.13,8.89,12a256.36,256.36,0,0,1,15.57,24.31,72.48,72.48,0,0,0,6.44,9.91,48.45,48.45,0,0,1,4.37,6.7,40.37,40.37,0,0,0,2.66,4.93c1.95,3.06,5.4,11.1,4.52,12.56a1.57,1.57,0,0,1-1.29.89c-1.16,0-2.31-1.61-4.09-5.75-.65-1.4-1.36-3-2-4.45-.52-1.19-1-2.25-1.31-2.94a6.71,6.71,0,0,0-2.14-3,1.64,1.64,0,0,0-.44-.09h-.13c-.07.11,0,.87,1.12,2a10.27,10.27,0,0,1,2.23,4.32,4,4,0,0,0,1.15,2.34h.21l.2.19c1,1,.95,11.31-1,67.32-.11,2.5-.11,11.37,0,19.78.06,9,.1,14.39.9,14.39a1.36,1.36,0,0,0,.35-.07,23.85,23.85,0,0,1,6.18-.78c3.64,0,3.72.78,3.76,1.11,0,1.5-3.52,2-4.23,2.15-2.07.39-6.88,1.29-10.78,2C228,261.53,191.39,262.23,162.15,262.23ZM17.38,249.6c2.06.1,4.77.3,5.93.4l3,.3c1.5.16,3.31.35,5,.5,7.56.91,14.54,1.41,31.39,2.6,25.69,1.92,30.66,2.11,47.58,2.6,5.12.15,8.34.22,10.77.22,3.17,0,6.49-.1,7-.81,1-1.15,1.1-7.52,1.1-27.41,0-1.94.12-11.54.27-23.71l.13-10.89.29-28.91-1.52,1.65c-1.3,1.38-2.23,2-3,2a1.5,1.5,0,0,1-1.09-.47c-1.22-1.23,0-3.24,2.17-5.88A24.76,24.76,0,0,0,129,158c-1.37-.3-6.18-1-12.37-1.85-14-1.87-23.38-3.2-27-4-1.4-.3-7-.8-12.22-1.09a99.25,99.25,0,0,1-12.13-1.42c-1.11-.37-8.58-.88-16.55-1-8.42-.1-18.1-.41-22-.7-1.92-.13-3.48-.23-4.65-.23-2.72,0-3.23.47-4.94,2.46-4.17,5-6.9,9.74-6.9,10.85,1.3.2,8.08.64,17,1,6.59.28,17.35.9,18.13,1.37.46.19,5,.6,12.26.83,1.22,0,12,.4,13.31,1,.59.22,7.25.64,15.79.85,35.48.67,35.48,2.44,35.48,3.1s0,1-9.57,1c-10.1,0-26.12-.55-39-1.33-1.52-.07-3.56-.19-5.78-.32-3.73-.21-8-.45-11.2-.58-5.39-.31-10.68-.71-12.06-.9s-8.56-.8-15.65-1.1l-12.79-.58-.09,4.79c0,1.29-.08,2.86-.13,4.44,0,2-.11,4-.17,5.37-.21,2.67-.64,21.28-1,37.19L14,249.47Zm4.89-105.53c.92.11,5,.37,21.41.93,21.74.74,22.06.95,22.26,1.09s1.59.28,10.26.91c5.48.3,10.81.9,11.77,1.11,1.3.37,19.43,2.65,27.75,3.49.61.08,2.9.48,5.81,1l3.12.54a34.61,34.61,0,0,0,6,.8c2.11,0,2.48-.69,2.54-2.22,0-.8,1.38-3,2-3.87,1.18-1.65,2.41-3.46,2.05-4.22-.45-.95-3.69-1.24-7.57-1.5-3.47-.28-4.52-.38-4.83-.61a18.69,18.69,0,0,0-3.16-.39c-1.44-.15-5.17-.67-9.5-1.27l-4.54-.63c-5.9-.92-15.75-1.9-22-2.2-5.37-.34-11.85-1-12.24-1.91a1.54,1.54,0,0,0-1.34-.59.9.9,0,0,0-.51.1.64.64,0,0,0,.06.18A1.23,1.23,0,0,1,71.7,136a1,1,0,0,1-.94.49,2.73,2.73,0,0,1-1.9-1c-.19-.13-1.71-.42-5.81-.42H59.61c-3.21,0-7-.28-7.82-.8a5.23,5.23,0,0,0-2.81-.73h-.36c-1.35,0-6.66-.2-11.75-.5-2.52-.13-4.28-.19-5.53-.19-2.16,0-2.7.19-2.83.29s0,0,0,.09c.43,1.15-.6,2.77-1.83,3.8C24.92,138.5,22.39,142.91,22.27,144.07Zm-2.38-1.26-.19.33a1.3,1.3,0,0,0-.22,1.26s.07.13.14.13a.55.55,0,0,0,.29-.18A1.75,1.75,0,0,0,20,143a.92.92,0,0,0-.09-.23Zm209.56-3.59a9.35,9.35,0,0,0,2.21,3,7.26,7.26,0,0,0-1.28-2,11,11,0,0,0-.93-1ZM124,136.69c.89,0,2.1.1,4.05.31a53.82,53.82,0,0,1,8.81,1.73,4.56,4.56,0,0,0,1.54.36c.52,0,.94-.17,1.59-1.08l.12-.17a26.41,26.41,0,0,1,2-2.69,18.15,18.15,0,0,0,1.78-3.91l.89-2.51-5.47-.63c-2.64-.24-6.66-1.07-7.28-2.15-.21-.34-.39-.42-.43-.42s-.11.06-.2.22c-.68.83-2.56,1.17-4.15,1.17h-.61c-1.88-.2-6.28-.3-9.68-.3-.28,0-6.54-.2-7.22-1.34a.88.88,0,0,0-.67-.4.55.55,0,0,0-.25.07c-.2.14-.6.24-1.81.24-5,0-19.86-1.83-21.6-2.84-.35-.17-1.07-.53-.95-1.13s.86-.73,2.18-.8h1.27a15.38,15.38,0,0,1,2.35.15c.52.09,4.8.39,9.92.59.95.06,9.17.58,10,1.82.3.46.45.46.5.46a2.17,2.17,0,0,0,1-.56,2.67,2.67,0,0,1,1.8-.82,1.16,1.16,0,0,1,.85.32,16.73,16.73,0,0,0,4.21.78c19,1.18,22.75,1.53,23.73,2.19a4.78,4.78,0,0,0,2.39.81c1.69,0,3.26-1.6,5.4-5.54l2.72-5.09-1.91-.07a31.64,31.64,0,0,1-4.76-.41c-7.07-1.17-19.31-2.68-28.46-3.49-5.52-.48-15-1.37-21-2-5.58-.58-14-1.3-18.47-1.5l-4.08-.27c-3.66-.24-7.81-.51-10.34-.73-3.55-.3-6.65-.71-7.08-.81h0a.89.89,0,0,0-.23,0,29.73,29.73,0,0,0-7.18,1.84c-1.28.4-2,1.09-2,1.33,0,.83-.94,2.26-1.82,3.24-.32.36-1.08,1.21-1,1.48s.49.46.64.57a7.56,7.56,0,0,0,3.27,1,15.29,15.29,0,0,1,4.68,1c.51.31,4,.71,9.62,1.25,4.72.59,5.08,1.07,5.25,1.3a1.33,1.33,0,0,0,.86.42h.14a.67.67,0,0,0-.12-.32,1.14,1.14,0,0,1-.14-1.14,1,1,0,0,1,.89-.41,8.55,8.55,0,0,1,2,.4,40.78,40.78,0,0,0,7.56.58h.86c1.56,0,4.18.19,4.33,1.44.1.78-.77,1.39-2.66,1.87a21.38,21.38,0,0,1-4,.22c-2.53,0-14.3-.33-16-1.27a3.17,3.17,0,0,0-1.25.74,2.74,2.74,0,0,1-1.94.76c-1.5,0-4.34-.84-12.33-3.26a17.79,17.79,0,0,0-4.4-.87,2,2,0,0,0-1.32.37c-.54.46-.75,1-.61,1.26a1.09,1.09,0,0,1,.07,1.13,1.13,1.13,0,0,1-1,.53,10,10,0,0,0-2.88,3.18c-1.21,1.76-3.22,3.83-4.58,4.2-.4.11-.66.21-.85.28.75.22,2.78.58,8.34.84,4.53.2,9.71.89,11.54,1.53a7.26,7.26,0,0,0,2.25.59c.36,0,.39-.11.4-.16A1.43,1.43,0,0,1,54.33,131a1.36,1.36,0,0,1,.65.19c.45.2,4.53.61,11,.83,6,.32,14.93,1,19.84,1.61,12.43,1.4,13,1.49,13.9,2.44a1.73,1.73,0,0,0,1.15.54H101l-.06-.14a.63.63,0,0,1,0-.65c.12-.2.36-.63,2.65-.63a16.51,16.51,0,0,1,2.55.14c2.49.18,7.09.5,9.66.6s3.86.31,4.43,1a1.93,1.93,0,0,1,.28,1.53c.6-1.25,1.37-1.81,3.47-1.81Zm-101-.27a2.07,2.07,0,0,0-.72.69,3,3,0,0,0,1-.9ZM157,116.49c-.39,0-1.29.62-2,2a17.93,17.93,0,0,1-1.88,2.92,18,18,0,0,0-1.82,2.59,9.39,9.39,0,0,0-.61,1.33,13.19,13.19,0,0,0,2.65-3.34c1.63-2.51,2.74-3.91,3.3-4.18h0a1.17,1.17,0,0,0,.52-.85C157.16,116.71,157.14,116.49,157,116.49Zm.76-2.53h.11a2.55,2.55,0,0,0,1.46-.75c1.5-1.2,2.8-3.09,5.38-7.76.82-1.38.89-1.83.88-2h-.13c-1.24.09-3,1.68-3.84,4.55a10.49,10.49,0,0,1-2.84,4.22c-1.05,1-1.06,1.62-1,1.69Zm-43.16-5.67c4.64,0,26.41,2.08,30.59,2.82.41.07,1,.19,1.63.32,1.11.22,2.44.49,3.57.68a13.25,13.25,0,0,0,2.59.28c2.66,0,4.13-1.11,4.64-3.49.36-1.54,1.08-3.38,1.83-3.83.58-.36.9-.74.83-1s-1.16-1-3.51-1h-.35c-2.44,0-10.2-.3-17.35-.8s-17.32-.9-22.48-1.1a80.58,80.58,0,0,1-11.16-1A125.47,125.47,0,0,0,91.62,99.1c-15-.73-20.47-1.34-24.54-2.72a18.16,18.16,0,0,0-5.38-.79c-2.68,0-4,.56-4.18.91v.23c.83,1.12-2.56,3.94-2.71,4.06l-2,1.71h2c7.61.1,22.7,1.18,29.37,2.11,4.13.63,11.51,1.3,16.45,1.49,3.59.21,9.9.76,10.81,1.52a4.28,4.28,0,0,0,2.35.7h.27ZM168,98.5c-.39,0-.58.08-.63.15s-.11.2.1.78.39,1.19.49,1.59a6.53,6.53,0,0,0,1.14-2.32,2.77,2.77,0,0,0-1.06-.2ZM74.76,83.28c-4.7,0-5.08.42-8.07,3.66-2.38,2.62-3.52,4.31-3.57,4.68,0,.9,4.56,1.54,18.67,3.29,10.93,1.39,18.53,1.88,47.86,3.09,23.94,1,30,1.57,31.2,2.11,1.78-.55,14.79-13.84,17.24-18.06.47-.81.82-1.25,1.27-1.25.65,0,.73.79.76,1a.76.76,0,0,1,0,.28c.23-.16.46-.33.67-.51.91-.75.9-1.09.88-1.18-.07-.25-.65-.87-4.42-1.34-2-.27-7.8-1-12.69-1.5C149.07,75.7,135.31,75,112,75h-4.85c-26.22,0-27.67-.65-28.07-1.15-.32.91-1.79,1.92-3.24,2.51s-2.7,1.85-2.7,2.44.73,1.11,4.83,1.3c1.33,0,13,.54,13.46,2.3a.75.75,0,0,1-.44.84,5.52,5.52,0,0,1-2.74.56,12.26,12.26,0,0,1-1.48-.1c-1.56-.21-6.14-.41-9.74-.5Zm96,11.23a1.46,1.46,0,0,0-1,.53c-.5.49-.58.84-.54.93s.08.06.25.06a1.78,1.78,0,0,0,.56-.1c.79-.4,1.15-.88,1.15-1s0-.42-.38-.42Z" transform="translate(-0.01 0)"/><path class="cls-1" d="M92.48,71.39a8.18,8.18,0,0,1,2.08.31,35.63,35.63,0,0,0,7.22.53h1.88c3.6,0,9.7-.1,13.5-.1h11.46c2.4,0,5.1.6,5.9,1.2a4,4,0,0,0,1,.67c.12,0,0-.25-.32-.77s.22-.89,2.58-.89c1.44,0,3.56.1,6.52.29,5.4.3,12.7,1,16.3,1.6s9,1.2,12,1.5c7.8.6,13.3,2.2,12.7,3.6-.2.7-7,11-15.1,23s-14.8,22.7-14.9,23.8a6.43,6.43,0,0,1-2,3.2c-1.7,1.3-15.5,22.4-18.7,28.8-1.8,3.3-2,6.2-2.1,27.8,0,14.7-.5,24.1-1.1,24.1s-.6.6-.1,1.2c.8,1.4.6,41.1-.3,44-.39,1.34.71,2.06,3.15,2.06a18.91,18.91,0,0,0,2.25-.16h.22a1,1,0,0,1,1,.91,1.08,1.08,0,0,0,1,1c.6,0,1-.7,1-1.5s.4-1.5.9-1.5a5.73,5.73,0,0,1,2.5,1.5,6,6,0,0,0,3.61,1.49c.64,0,1-.24.69-.79s3.3-.7,7.9-.8,8.2.2,8,.5,3.11.44,6.65.44c3.83,0,7.94-.17,8.25-.54a20.71,20.71,0,0,1,4.45-.24h3l7.1.1.2-10.1c.1-5.5.3-13,.4-16.6s0-10.7-.3-15.8l-.5-9.2h-7.8c-5,0-8.1.4-8.8,1.2-1.4,1.8-2.1,10-2.8,31.5-.3,10.1-1,18.3-1.4,18.3-1.8,0-1.5-33.8.5-46.6,1-6.8,2.1-7.4,13.4-7.4,7.1,0,9.8.3,9.9,1.2.1,2.6.3,48.5.1,49.4-.4,2.3.2,4.2,1.7,4.8a2.41,2.41,0,0,0,.75.17c.32,0,.44-.16.25-.47s3.1-.8,7.7-.8a73.72,73.72,0,0,0,11.4-.7,11.33,11.33,0,0,1,2.24-.41c.76,0,.74.44.36,1.51-.28.86-.37,1.26-.17,1.26s.46-.23,1-.66c.8-.6,4.1-1.3,7.4-1.5l6-.4.2-20.5c.1-11.2.4-33.2.6-48.9l.5-28.4-3.9-8.1c-2.1-4.4-5-10-6.4-12.4a61.58,61.58,0,0,1-4.3-8.5,23.12,23.12,0,0,0-3.4-6,29.1,29.1,0,0,1-3.3-5.2,12.33,12.33,0,0,0-2.5-3.9,2.51,2.51,0,0,1-1-2.1c0-1.6-4.2-7.5-14.7-20.7-3.5-4.4-6.3-8.2-6.3-8.6a9.7,9.7,0,0,0-2-3.1c-1.9-2.2-2.6-4-1.5-4,2.2,0,10.5,8,15.6,15,3.4,4.7,7.4,10.1,8.9,12a256.32,256.32,0,0,1,15.5,24.4,72.26,72.26,0,0,0,6.5,10A45.56,45.56,0,0,1,237,144a39.49,39.49,0,0,0,2.7,5c2.3,3.6,5.1,11,4.5,12-.26.43-.55.65-.86.65-.89,0-2-1.7-3.64-5.45-1.2-2.6-2.6-5.9-3.3-7.4a7,7,0,0,0-2.4-3.3,1.91,1.91,0,0,0-.63-.13c-1,0-.82,1.38.63,2.83a10,10,0,0,1,2.1,4.1c.3,1.5,1.1,2.7,1.6,2.7,1,0,.7,16.4-1.1,67-.1,2.5-.1,11.4,0,19.8.09,12.57.18,14.89,1.41,14.89a1.37,1.37,0,0,0,.49-.09,23.39,23.39,0,0,1,6-.76c1.82,0,3.22.22,3.26.66,0,.6-1.6,1.3-3.8,1.6s-6.9,1.3-10.8,2c-5.35,1-43.06,1.63-71,1.63-15.94,0-28.71-.22-30.49-.73s-10.4-1-19.3-1.1-20.1-.5-25.1-.9-14.3-1.2-20.6-1.5a127.79,127.79,0,0,1-15-1.6,10.77,10.77,0,0,0-2.52-.4c-.74,0-1.17.18-1.28.5a.87.87,0,0,1-.78.68.72.72,0,0,1-.32-.08c-.6-.4-23.6-1.6-36.3-1.9-5.1-.2-5.7-.7-3.3-2.7a2.28,2.28,0,0,1,1.15-.69c.24,0,.35.2.35.59a1,1,0,0,0,.89,1.1h0c.8,0,1.1-6.2,2.5-53.5.3-11.6.8-24.3,1.1-28.2l.6-7.3-2.9.6a7.19,7.19,0,0,1-1.46.17,3.19,3.19,0,0,1-2.64-1.17c-1.1-1.3-.6-2.7,3.7-9q5-7.35,4.2-8.7c-.6-.9.7-3.5,3.8-7.9,5.9-8.3,14.1-18.8,15-19.2a85.16,85.16,0,0,0,7.1-8.2c3.6-4.3,7.4-8.9,8.5-10s3-3.4,4.2-4.7a30.39,30.39,0,0,1,4.1-4,98.67,98.67,0,0,0,8.2-9.6c6.9-9.2,8.8-10.1,19.5-10.2a28.61,28.61,0,0,0,6.4-.5,1.65,1.65,0,0,1,1-.21m-4.21,12a9.55,9.55,0,0,1-1.41-.1c-1.5-.2-5.9-.4-9.8-.5H74.74c-4.83,0-5.36.48-8.44,3.82-2,2.2-3.7,4.4-3.7,5,0,1.3,2.1,1.7,19.1,3.8,11,1.4,18.9,1.9,47.9,3.1,21,.9,30.2,1.5,31.1,2.1h.09c1.58,0,15.26-14.1,17.71-18.32.4-.67.66-1,.84-1s.22.21.26.6c0,.57.08.84.32.84s.6-.25,1.18-.74c2.2-1.8,1-2.8-3.8-3.4-2.3-.3-8-1-12.7-1.5-14.92-1.78-28.69-2.51-52.65-2.51H107.1c-17.9,0-27.2-.3-27.7-1-.24-.38-.43-.56-.57-.56s-.23.2-.23.56c0,.6-1.3,1.7-3,2.4s-3,2-3,2.9c0,1.2,1.1,1.6,5.3,1.8,8.1.3,14.2,1.4,12.8,2.2a4.87,4.87,0,0,1-2.49.5m81.18,13.13a2.47,2.47,0,0,0,.71-.13c.8-.4,1.5-1,1.5-1.5a.84.84,0,0,0-.79-.89h-.12a2,2,0,0,0-1.39.69c-1,1-.82,1.83.09,1.83M51.39,103h3.4c7.7.1,22.8,1.2,29.3,2.1,3.9.6,11.3,1.3,16.5,1.5s9.9.9,10.5,1.4a4.83,4.83,0,0,0,2.68.82h.82c4.5,0,26.2,2,30.5,2.81,1.1.2,3.4.7,5.2,1a13.41,13.41,0,0,0,2.68.29c2.91,0,4.57-1.3,5.12-3.89.4-1.7,1.1-3.2,1.6-3.5,2.33-1.45.71-2.9-2.93-2.9h-.37c-2.4,0-10.1-.3-17.3-.8s-17.3-.9-22.5-1.1a75.09,75.09,0,0,1-11-1c-.8-.3-7.1-.8-14-1.1-14.4-.7-20.3-1.3-24.4-2.7a18.9,18.9,0,0,0-5.54-.81c-3,0-5.31.72-4.56,1.91.3.4-.9,2-2.6,3.4l-3.1,2.6m116.29-1c.39,0,1.91-2.4,1.91-3.27,0-.4-.7-.7-1.6-.7-1.1,0-1.4.5-1,1.6a11.93,11.93,0,0,1,.6,2.2c0,.12,0,.17.09.17m-9.86,12.5a3.13,3.13,0,0,0,1.77-.87c1.5-1.2,2.8-3,5.5-7.9,1.2-2,1.2-2.7.3-2.7-1.6.1-3.4,2-4.3,4.9a10.11,10.11,0,0,1-2.7,4c-1.49,1.43-1.46,2.57-.57,2.57M68.62,120c.56,0,.87-.45.44-1.12s-.2-.78.33-.78a8,8,0,0,1,1.87.38,41.37,41.37,0,0,0,7.7.6h.87c4.2,0,5.29,1.38,1.53,2.32a20.57,20.57,0,0,1-3.84.21c-5.67,0-15.23-.6-15.76-1.21a.22.22,0,0,0-.19-.06,3.13,3.13,0,0,0-1.61.86,2.25,2.25,0,0,1-1.61.64c-1.42,0-4.29-.84-12.19-3.24a18.48,18.48,0,0,0-4.54-.91,2.42,2.42,0,0,0-1.66.49c-.7.6-1,1.4-.7,1.9a.55.55,0,0,1-.06.78.57.57,0,0,1-.44.12c-.6,0-2.1,1.6-3.3,3.4s-3.2,3.7-4.3,4c-3.6,1-.8,1.7,7.6,2.1,4.6.2,9.7.9,11.4,1.5a7.51,7.51,0,0,0,2.42.62c.5,0,.79-.18.88-.52a.93.93,0,0,1,.81-.72.69.69,0,0,1,.39.12c.5.3,5.5.7,11.2.9s14.6,1,19.8,1.6c12.4,1.4,12.8,1.5,13.6,2.3a2.29,2.29,0,0,0,1.51.69c.51,0,.82-.3.49-.89-.2-.34.7-.54,2.22-.54a16,16,0,0,1,2.48.14c2.8.2,7.2.5,9.7.6,3.9.2,4.5.5,4.2,2.2-.1,1-.15,1.45,0,1.45s.39-.42.92-1.25c.67-1.06,1.29-1.51,3.2-1.51a38.25,38.25,0,0,1,4,.31,52.67,52.67,0,0,1,8.7,1.7,5,5,0,0,0,1.71.39,2.37,2.37,0,0,0,2-1.29,27.25,27.25,0,0,1,2.1-2.8,18.18,18.18,0,0,0,1.9-4.1l1.1-3.1-6.1-.7c-3.3-.3-6.5-1.2-6.9-1.9-.27-.44-.58-.67-.86-.67a.79.79,0,0,0-.64.47c-.44.54-2,.92-3.71.92h-.59c-1.9-.2-6.3-.3-9.7-.3s-6.5-.6-6.8-1.1a1.34,1.34,0,0,0-1.09-.64,1,1,0,0,0-.51.14,3.88,3.88,0,0,1-1.55.17c-5,0-19.72-1.83-21.35-2.77-1.2-.6-.9-.9,1-1h1.25a15.45,15.45,0,0,1,2.25.14c.6.1,5,.4,10,.6s9.2,1,9.6,1.6.58.68.92.68a2.33,2.33,0,0,0,1.28-.68,2.27,2.27,0,0,1,1.49-.7.59.59,0,0,1,.51.2,15.06,15.06,0,0,0,4.5.9c17.7,1.1,22.6,1.5,23.5,2.1a5.2,5.2,0,0,0,2.67.9c2,0,3.65-1.78,5.83-5.8l3.1-5.8-2.7-.1a32.17,32.17,0,0,1-4.7-.4c-7.2-1.2-19.5-2.7-28.5-3.5-5.8-.5-15.2-1.4-21-2s-14.1-1.3-18.5-1.5-10.9-.7-14.4-1-6.6-.7-7-.8a1.15,1.15,0,0,0-.45-.07A30.52,30.52,0,0,0,49,107.56c-1.3.4-2.3,1.2-2.3,1.8a6.48,6.48,0,0,1-1.7,2.9c-1.5,1.7-1.5,2-.3,2.8a8,8,0,0,0,3.5,1.1,15,15,0,0,1,4.5.9c.5.3,2.7.6,9.8,1.3,2.4.3,4.6.7,4.9,1.1a1.93,1.93,0,0,0,1.26.62m81.7,6c.55,0,2-1.45,3.44-3.81,1.3-2,2.7-3.9,3.1-4a1.66,1.66,0,0,0,.8-1.3c0-.63-.26-.91-.64-.91-.67,0-1.7.83-2.46,2.21a17.12,17.12,0,0,1-1.8,2.8,18.21,18.21,0,0,0-1.9,2.7c-.86,1.6-.93,2.31-.54,2.31m-19.73,28.33c2.32,0,3-.82,3-2.71a12.31,12.31,0,0,1,1.9-3.6c3.8-5.3,3.2-5.9-5.9-6.5a32.44,32.44,0,0,1-4.5-.5,13.39,13.39,0,0,0-3.5-.5c-1.9-.2-8.2-1.1-14-1.9s-15.7-1.9-22-2.2-11.6-1.1-11.8-1.6A2,2,0,0,0,72,134c-.9,0-1.2.4-.9,1s.2,1-.4,1a2.26,2.26,0,0,1-1.5-.8c-.25-.41-2.86-.62-6.21-.62H59.58c-3.76,0-7-.36-7.56-.72a5.67,5.67,0,0,0-3.08-.81h-.42c-1.3,0-6.6-.2-11.7-.5-2.41-.12-4.22-.19-5.55-.19-3,0-3.59.33-3.25,1.09s-.5,2.2-1.7,3.2c-2,1.6-5.2,7.2-4.5,7.8.2.2,10,.6,21.8,1s21.7.8,22,1,5,.6,10.5,1,10.8.9,11.7,1.1c1.4.4,19.9,2.7,27.8,3.5.8.1,4.8.8,8.9,1.5a36.58,36.58,0,0,0,6.07.81M22.08,137.6a2.4,2.4,0,0,0,1.58-1.1c.78-.94,1-1.43.75-1.43a5.27,5.27,0,0,0-1.75.93c-.8.5-1.2,1.2-.9,1.5a.53.53,0,0,0,.32.1M232,142.91a.25.25,0,0,0,.2-.09c.3-.3-.3-1.6-1.4-2.9-.82-1-1.54-1.62-1.84-1.61-.1,0-.16.06-.16.21,0,1.28,2.34,4.39,3.2,4.39M19.62,145a.93.93,0,0,0,.64-.33,2.08,2.08,0,0,0,.2-1.8c-.2-.55-.35-.82-.52-.82s-.38.27-.68.82c-.69,1-.31,2.13.36,2.13m93,24.7c-9.66,0-25.39-.5-38.93-1.33-4.1-.2-11.8-.7-17-.9s-10.6-.7-12-.9-8.5-.8-15.7-1.1l-13.37-.59-.1,5.3c-.1,2.9-.2,7.3-.3,9.8s-.6,19.2-1,37.2l-.8,32.8,3.9.1c2.1.1,4.8.3,5.9.4s4.8.5,8,.8c7.5.9,14.5,1.4,31.4,2.6,25.5,1.9,30.5,2.1,47.6,2.6,4.65.14,8.15.22,10.78.22,5.07,0,6.9-.29,7.42-1,1-1.2,1.2-6,1.2-27.7,0-2.5.2-18.1.4-34.6l.3-30.2-2.4,2.6c-1.18,1.25-2,1.83-2.66,1.83a1,1,0,0,1-.74-.33c-.8-.8-.2-2.3,2.2-5.2,1.8-2.3,3-4.3,2.8-4.5s-6-1.1-12.9-2c-14.2-1.9-23.4-3.2-27-4-1.4-.3-6.9-.8-12.3-1.1a77.61,77.61,0,0,1-12-1.4c-1.2-.4-8.7-.9-16.7-1s-17.9-.4-22-.7c-2-.14-3.53-.23-4.68-.23-3,0-3.59.62-5.32,2.63-4.2,5-7.7,10.8-6.9,11.6.2.2,8.1.7,17.4,1.1s17.4,1,17.9,1.3,6.2.7,12.5.9,12.3.6,13.1,1,8,.7,16,.9c21.4.4,35,1.4,35,2.6,0,.37-3.54.53-9.07.53M92.44,70.42a2.79,2.79,0,0,0-1.5.32,36.65,36.65,0,0,1-5.92.39c-11.15.11-13.24,1.2-20.3,10.6a99.75,99.75,0,0,1-8,9.42,32.37,32.37,0,0,0-4.23,4.13c-.47.51-1,1.18-1.67,1.88-.88,1-1.79,2.07-2.48,2.77-.93.92-3.54,4-6.56,7.66l-2,2.4a104.31,104.31,0,0,1-6.85,8c-1.66,1-11.42,14-15.3,19.47-4.08,5.79-4.56,7.77-3.88,8.93,0,.3-.17,1.8-4.13,7.69-4.14,6.07-5.34,8.2-3.64,10.21a4.19,4.19,0,0,0,3.4,1.52,7.85,7.85,0,0,0,1.67-.19l1.59-.33-.49,6c-.31,4-.81,16.89-1.1,28.26-.93,31.2-1.41,46.27-1.9,51.15a1.29,1.29,0,0,0-.86-.32,2.87,2.87,0,0,0-1.81,1c-1,.83-2,1.77-1.62,2.86s2,1.44,5.55,1.58c12.68.3,34.17,1.44,36,1.83a1.65,1.65,0,0,0,.69.15,1.83,1.83,0,0,0,1.65-1.15h.41a9.2,9.2,0,0,1,2.27.37c2.17.57,9.44,1.27,15.19,1.63,6.6.31,15.81,1,20.57,1.5s16.13.9,25.19.9c9.48.11,17.5.64,19,1.07,2.2.63,17.94.76,30.75.76,25.88,0,65.49-.63,71.19-1.64,3.8-.69,8.52-1.57,10.79-2,1.41-.2,4.63-.83,4.63-2.59v-.11c-.12-1.1-1.36-1.55-4.26-1.55a24.5,24.5,0,0,0-6.32.8h-.06c-.47-1.17-.51-6.81-.56-13.86-.1-8.41-.1-17.27,0-19.76,1.56-43.81,1.89-59.1,1.55-64.61,1.7,3.78,2.86,5.22,4.19,5.22a2,2,0,0,0,1.71-1.12c1.06-1.76-2.66-10.18-4.5-13.07h0a41.46,41.46,0,0,1-2.59-4.83,47.48,47.48,0,0,0-4.43-6.8,71.6,71.6,0,0,1-6.4-9.85,259,259,0,0,0-15.58-24.53c-1.47-1.86-5.37-7.11-8.89-12-4.52-6.21-13.4-15.42-16.41-15.42a1.47,1.47,0,0,0-1.38.84,1.82,1.82,0,0,0,0,1.26c-3.25-1.64-10.35-2.27-12-2.39-2.91-.3-8.23-1-11.94-1.5-3.51-.58-10.71-1.29-16.38-1.61-3.22-.2-5.2-.29-6.58-.29-1.83,0-2.89.13-3.4.79a16.74,16.74,0,0,0-5.78-1H110.3c-2.46,0-4.79,0-6.57,0h-1.88a35.09,35.09,0,0,1-6.94-.49,9,9,0,0,0-2.36-.35ZM91.27,83.77a1.22,1.22,0,0,0,.62-1.35c-.16-.68-.63-1.29-4.69-1.9A86.58,86.58,0,0,0,78,79.73c-3.49-.16-4.21-.49-4.32-.67a.29.29,0,0,1,0-.13,4.56,4.56,0,0,1,2.41-2,8.1,8.1,0,0,0,3.22-2.26c1.43.52,6.47.94,27.87.94H112c23.33,0,37.08.66,52.54,2.51,4.91.52,10.67,1.23,12.69,1.49,2.87.36,3.71.8,3.94,1a3.08,3.08,0,0,1-.64.66,1.17,1.17,0,0,0-1.14-.92c-.76,0-1.22.68-1.7,1.5-2.34,4-14.45,16.47-16.84,17.76-1.5-.48-6.77-1-31.15-2.06-29.31-1.21-36.91-1.7-47.82-3.09C71.4,93.17,64.8,92.32,63.7,91.62a27.47,27.47,0,0,1,3.38-4.3c2.92-3.16,3.22-3.49,7.7-3.49H77c3.69.1,8.2.3,9.68.49a11.28,11.28,0,0,0,1.54.11,5.89,5.89,0,0,0,3-.66Zm65.05,42.5c.35-1.17,5.5-9.53,14.74-23.38,4.26-6.32,14-20.77,15.12-23l.69.84a11.17,11.17,0,0,1,1.76,2.5c0,.38.37,1.44,6.51,9.16,4,5,14.43,18.14,14.48,20.08a3.5,3.5,0,0,0,1.5,3,13.77,13.77,0,0,1,2.09,3.44,30.2,30.2,0,0,0,3.47,5.46,21.94,21.94,0,0,1,3.21,5.7,64,64,0,0,0,4.39,8.66c1.41,2.42,4.32,8.06,6.34,12.3l3.8,7.89-.5,28.16-.15,11.79c-.17,13.37-.37,28.53-.45,37.12l-.19,19.58-5.07.33a29.34,29.34,0,0,0-6.9,1.19,1.61,1.61,0,0,0-.24-1.19,1.56,1.56,0,0,0-1.36-.61,12.19,12.19,0,0,0-2.47.44,74.53,74.53,0,0,1-11.17.67c-6.94,0-8.16.65-8.49,1.09-.86-.47-1.23-1.86-.92-3.62.28-1.25-.07-49.18-.09-49.61v-.07c-.19-1.7-2.23-2.09-10.9-2.09-11.35,0-13.25.56-14.38,8.26-1.62,10.35-2.56,43.2-.58,47.08h-.69a53.7,53.7,0,0,1-6-.22c-.42-.42-1.76-.72-8.7-.72-8.27.18-8.53.72-8.8,1.29a.94.94,0,0,0-.1.28,5.11,5.11,0,0,1-2.59-1.17h0c-.46-.41-2.06-1.75-3.17-1.75s-1.9,1.1-1.9,2.5a.89.89,0,0,1,0,.23,2,2,0,0,0-2-1.64h-.35a18.19,18.19,0,0,1-2.09.14c-1.47,0-2.07-.29-2.2-.46s0-.23,0-.32c.68-2.16.81-19.4.83-22.83.06-9.35,0-20.7-.6-21.92.49-.55.75-2.23,1-7.22.21-4.46.32-10.55.32-17.61.1-21.44.31-24.25,2-27.32,3.2-6.39,16.86-27.22,18.43-28.48a7.56,7.56,0,0,0,2.38-3.8h0ZM58.07,96.69a8.56,8.56,0,0,1,3.61-.57,18.25,18.25,0,0,1,5.24.76c4.1,1.4,9.63,2,24.66,2.75a136.53,136.53,0,0,1,13.7,1c1.09.41,6.84.89,11.31,1.06,5.16.2,15.25.69,22.48,1.1s14.93.8,17.35.8h.37a5.37,5.37,0,0,1,3,.59,2,2,0,0,1-.57.46c-1.21.73-2,3.78-2,4.12-.46,2.17-1.74,3.12-4.15,3.12a13,13,0,0,1-2.48-.27c-1.15-.19-2.49-.46-3.57-.68l-1.65-.32c-4.19-.75-26-2.83-30.68-2.83h-.82a3.92,3.92,0,0,1-2-.59c-1.18-1-8.78-1.49-11.08-1.63-5-.19-12.3-.85-16.4-1.49-6.71-.92-21.83-2-29.44-2.11h-.67l1-.83c1.1-.91,3.49-3.1,2.9-4.51ZM167.89,99H168a2.17,2.17,0,0,1,.51,0,7.85,7.85,0,0,1-.38.77,1.85,1.85,0,0,0-.18-.53,2.29,2.29,0,0,1-.08-.28Zm-5.8,9.16a6.75,6.75,0,0,1,2.72-4c-.12.24-.29.56-.54,1-2.56,4.64-3.83,6.48-5.27,7.63l-.27.21a3.68,3.68,0,0,1,.39-.4,11.12,11.12,0,0,0,3-4.46ZM47.62,109.39a3.38,3.38,0,0,1,1.6-.93,29.72,29.72,0,0,1,7-1.83h.21c.52.13,3.76.54,7.16.83,2.52.21,6.66.49,10.32.73l4.1.27c4.47.2,12.89.92,18.46,1.5,6.07.63,15.5,1.52,21,2,9.14.81,21.36,2.31,28.42,3.49a33,33,0,0,0,4.86.41h1.07l-2.2,4.47c-2,3.69-3.49,5.27-5,5.27a4.28,4.28,0,0,1-2.15-.75c-1.06-.71-4.43-1-24-2.25a18.09,18.09,0,0,1-3.85-.69,1.67,1.67,0,0,0-1.13-.4,3.24,3.24,0,0,0-2.15,1,3.07,3.07,0,0,1-.56.38l-.14-.19c-.87-1.3-6.87-1.84-10.38-2-5.12-.2-9.37-.5-9.89-.58a15.06,15.06,0,0,0-2.42-.16H86.63a5.11,5.11,0,0,0-1.93.35V120c-.15-1.24-1.78-1.88-4.82-1.88H79a40,40,0,0,1-7.41-.57,8.12,8.12,0,0,0-2.12-.41,1.42,1.42,0,0,0-1.32.66,1.32,1.32,0,0,0-.17.75c-.43-.33-1.54-.75-5.31-1.22-3.08-.3-8.76-.86-9.43-1.18h0a14.94,14.94,0,0,0-4.85-1,7.23,7.23,0,0,1-3-.91h0c-.12-.08-.24-.16-.35-.25a10.86,10.86,0,0,1,.84-1.06c.19-.21,1.88-2.12,2-3.47Zm-7.51,10.25a1.3,1.3,0,0,1,.47-.68,1.48,1.48,0,0,1,1-.25,17.3,17.3,0,0,1,4.27.85c8,2.44,10.89,3.28,12.46,3.28a3.24,3.24,0,0,0,2.23-.85h0a3.35,3.35,0,0,1,.91-.58c3,1.14,15.85,1.24,16,1.24a17.51,17.51,0,0,0,4.09-.24,6.66,6.66,0,0,0,2.34-1c0,.77.86,1.19,1.25,1.39,2.08,1.12,17.08,2.88,21.81,2.88a3.83,3.83,0,0,0,2.06-.31.43.43,0,0,1,.26.2c.7,1.16,5.07,1.47,7.61,1.54,3.4,0,7.78.1,9.62.3h.77c.55,0,3.29-.06,4.38-1.16,1,1.72,7.58,2.33,7.64,2.34l4.83.55-.68,1.92a18,18,0,0,1-1.7,3.77,25.24,25.24,0,0,0-2,2.71l-.12.18c-.58.8-.87.86-1.18.86a4,4,0,0,1-1.36-.33,54.23,54.23,0,0,0-8.93-1.75,37.89,37.89,0,0,0-4.12-.32,4.46,4.46,0,0,0-3.15.89,2.11,2.11,0,0,0-.31-.57c-.69-.86-2-1.06-4.78-1.21-2.58-.1-7.17-.42-9.68-.6-.9-.09-1.79-.14-2.56-.14-2.15,0-2.79.35-3.09.89a1,1,0,0,0-.14.37,1.93,1.93,0,0,1-.28-.22c-1.08-1.08-1.47-1.16-14.19-2.59-4.92-.57-13.83-1.29-19.86-1.61a86.78,86.78,0,0,1-10.81-.79,1.66,1.66,0,0,0-.84-.23,1.87,1.87,0,0,0-1.69,1.24,6.69,6.69,0,0,1-2.06-.55c-1.89-.67-7.13-1.37-11.71-1.57-3.28-.15-5.29-.34-6.53-.5a14.64,14.64,0,0,0,4-4,11,11,0,0,1,2.6-3,1.58,1.58,0,0,0,1.3-.78,1.54,1.54,0,0,0,0-1.58Zm-11,13.89a13.59,13.59,0,0,1,2.21-.12c1.24,0,3,.06,5.5.19,5.2.31,10.44.5,11.75.5H49a4.94,4.94,0,0,1,2.44.58h0c1,.7,5.76.89,8.11.89H63a24.86,24.86,0,0,1,5.65.34A3.25,3.25,0,0,0,70.8,137a1.52,1.52,0,0,0,1.38-.74,1.65,1.65,0,0,0,.11-1.25,1.14,1.14,0,0,1,.7.3c.19.47.57,1.42,12.65,2.19,6.21.3,16,1.28,21.91,2.19l4.52.63c4.35.6,8.1,1.13,9.53,1.28h0a20.16,20.16,0,0,1,3,.37,5.31,5.31,0,0,0,1.71.34l3.21.29c2.22.15,6.81.45,7.17,1.22.17.36-.5,1.61-2,3.7s-2.09,3.48-2.09,4.18c0,1.28-.21,1.71-2,1.71a35.22,35.22,0,0,1-5.88-.79l-3.09-.53-5.87-1c-8.32-.84-26.4-3.11-27.65-3.47h-.06c-1-.22-6.35-.83-11.86-1.13-8.64-.62-10-.87-10.19-.92h0c-.53-.21-2.88-.43-22.38-1.09-14.37-.48-19.18-.75-20.79-.87a18.83,18.83,0,0,1,4.08-6.15c1.26-1,2.33-2.62,2.11-4Zm-18.35,27c.51-1.58,3-5.77,6.68-10.1,1.58-1.84,2-2.28,4.55-2.28,1.16,0,2.71.1,4.62.23,3.94.29,13.63.6,22,.7s15.48.64,16.4.95c1.43.48,7.35,1.09,12.24,1.45,5.76.32,10.93.82,12.17,1.08,3.67.82,13.08,2.14,27.07,4,5.77.76,9.88,1.39,11.68,1.72a33,33,0,0,1-2.23,3.18c-1.89,2.27-3.78,4.86-2.12,6.52a2,2,0,0,0,1.44.62c1,0,2-.64,3.39-2.14l.65-.7-.28,27.6-.08,10.55c-.16,12.34-.28,22.09-.28,24,0,18.27-.13,26.06-1,27.06h0c-.25.28-1.6.61-6.62.61-2.42,0-5.63-.07-10.75-.22-16.9-.49-21.86-.68-47.55-2.6-16.85-1.19-23.82-1.69-31.36-2.59-1.72-.16-3.53-.35-5-.51s-2.44-.25-3-.29c-1.16-.11-3.87-.31-5.94-.41l-2.92-.07.77-31.8c.33-14.67.79-34.49,1-37.15.06-1.44.12-3.43.17-5.43,0-1.57.09-3.14.13-4.41l0-4.19,12.27.55c7.68.32,14.35.83,15.54,1.08h.06c1.39.2,6.7.6,12.09.91,3.26.13,7.48.37,11.21.58,2.22.13,4.26.25,5.8.32,12.83.78,28.86,1.33,39,1.33,2.86,0,5.1,0,6.67-.13,2-.11,3.4-.19,3.4-1.4s-.5-1.86-10.4-2.59c-6.19-.46-15-.81-25.58-1-9.1-.23-14.92-.63-15.67-.84-1.66-.64-10.65-1-13.41-1.06a102.8,102.8,0,0,1-12.15-.75h.06c-1.59-.68-16.57-1.33-18.3-1.41-8-.34-14.38-.73-16.46-1Zm165.86,47.32c.14-.12,1.3-.85,8-.85h6.86l.45,8.26c.3,5.24.39,12.24.3,15.71-.09,3.09-.3,10.87-.41,16.61l-.18,9.11-6.1-.09h-3c-4,0-4.7.18-5,.41a32.73,32.73,0,0,1-4.94.34,5.94,5.94,0,0,0,.35-1.61c.13-1,.27-2.32.4-4,.29-3.64.52-8.25.66-13,.56-17.17,1.21-29,2.57-30.88Z" transform="translate(-0.01 0)"/><path class="cls-1" d="M164.2,87.42c-6,0-6-.82-6-1.22,0-.1-.35-.4-1-.4a2.15,2.15,0,0,0-1,.22c-.06.48-.83.9-10.77.9-2.1,0-7.08,0-7.9-.35-.1,0-1.37-.14-11.34-.47a113,113,0,0,1-14-1.11,9.83,9.83,0,0,0-1.61-.35l.06.1c.25.45.44.86.24,1.21a.62.62,0,0,1-.55.29,3.24,3.24,0,0,1-1.46-.6c-.81-.37-4.15-.66-7.73-.66H96.53c-3.17,0-4.07-.16-4.36-.78s.18-1,.36-1.27c.66-.8,2.11-1.24,7.9-1.24,2.55,0,6,.09,11,.26.17,0,16.77.36,18.59,1.15h0c.72.23,9.63.55,22.49.55,20.84.18,20.86.35,20.94.91l.06.43-.46.14a.92.92,0,0,0-.44.43h0v.06a.63.63,0,0,1-.06.58c-.51.78-4,1-6.89,1.1A6,6,0,0,1,164.2,87.42Z" transform="translate(-0.01 0)"/><path class="cls-1" d="M100.38,82.24c2.65,0,6.22.09,11,.26,9.6.2,17.9.7,18.4,1.1s10.7.6,22.7.6,21.1.3,20.4.5-1,.8-.7,1.2-2.7.9-6.5,1h-1.46c-3.18,0-5.54-.28-5.54-.72s-.7-.9-1.5-.9-1.5.3-1.5.6-5.38.52-10.27.52a51.22,51.22,0,0,1-7.73-.32c-.3-.1-5.4-.3-11.5-.5a113.53,113.53,0,0,1-13.9-1.1,8.49,8.49,0,0,0-1.87-.37c-.55,0-.58.28-.23.87s.34.74.12.74a3.43,3.43,0,0,1-1.22-.54c-1-.43-4.34-.72-8-.72H96.45c-3.84,0-4.44-.24-3.62-1.23.6-.72,2.37-1.06,7.52-1.06m0-1c-5.46,0-7.4.34-8.29,1.43a1.7,1.7,0,0,0-.43,1.79c.44.92,1.53,1.07,4.82,1.07h4.61a31.2,31.2,0,0,1,7.53.62,3.56,3.56,0,0,0,1.66.64,1.1,1.1,0,0,0,1-.54,1.2,1.2,0,0,0,.12-.89,2.47,2.47,0,0,1,.62.16,111.36,111.36,0,0,0,14.13,1.13c9.25.3,11,.43,11.28.47a52.15,52.15,0,0,0,8,.35c2.56,0,5.12-.05,7-.13,2.53-.11,3.82-.17,4.16-.9a2,2,0,0,1,.59-.09,1.12,1.12,0,0,1,.51.11c.1.84.93,1.51,6.53,1.51h1.49c6.54-.17,7-1,7.29-1.32a1.11,1.11,0,0,0,.17-.88l.09-.07.73-.2-.08-.88c-.12-.9-.78-.93-2.54-1-1,0-2.48-.09-4.36-.13-3.65-.09-8.81-.16-14.52-.21-12.53,0-21.47-.31-22.37-.54a.32.32,0,0,1,.18.08h0c-1.71-.83-14.82-1.16-18.88-1.25-5-.17-8.46-.26-11-.26Z" transform="translate(-0.01 0)"/><path class="cls-1" d="M293.92,262.33c-6.65,0-17.42-.75-21.86-1.74s-6.59-2-6.68-3.2q-.06-.86,1.2-1.35c1.1-.41,8.1-.72,11.07-.84l9-.19.09-4.52c.4-13.93.71-45.81.5-52.47l-.09-7.22-4.65-2.56c-12.87-7-18.65-21.3-18.76-46.24-.1-10.71.11-12,2.75-17.51,3-6,10.68-13,15.53-14.27a17.13,17.13,0,0,1,3.78-.3c1.28,0,2.59.06,3.79.18,8.3.61,13.77,5.57,16.73,15.15,4.06,13.91,6,33.15,4.42,43.83-.82,5.22-1.42,6.16-8.05,12.58-3.55,3.55-8.06,7.32-9.45,7.9-2,.72-2.65,2.3-2.11,4.84.13.61.1,7.14,0,13.11-.06,4.36-.13,11.72-.19,19.08,0,3.78-.07,7.56-.11,10.92L290.74,255l5.93.46c3.38.27,7.38,1.16,7.53,2.82.07.81-.71,1.44-2.34,1.87a2.6,2.6,0,0,0-1.73,1c0,.63-.75.84-2.05,1-1,.1-2.4.15-4.18.15Zm-15.3-4.09a4.84,4.84,0,0,0,3.13,0,1.93,1.93,0,0,0-1.57-.74,1.88,1.88,0,0,0-1.55.73Zm-7.26-136.68a.62.62,0,0,1,.3.3c.11.25.28.64-1.51,2.58-3.19,3.39-4.34,15.27-2.57,26.48.28,1.79.78,5.36,1.1,8,.91,6.65,3.47,14,6.1,17.36.91,1.28,2.4,3.52,2.4,4.3a27,27,0,0,0,5.07,3.68l4.58,2.82.56-3c.59-3.22.28-17.66-.7-33.58-.55-7.74-.9-34.64,0-35.58l.1-.11a1.32,1.32,0,0,1,.87-.52c1.35,0,1.35,0,2.9,46.77l.3,9c.32,9.86.5,15.29,1.86,15.29,1,0,3.18-2.2,6.17-5.24l1.5-1.52c5.77-5.77,6.57-7.72,7.16-17.38.29-4.38-1.58-21-3.29-29.17a85.78,85.78,0,0,0-3.54-11.95h-.19c-.19,0-.63,0-1.89-1.68a13.13,13.13,0,0,0-4.22-3.55,12.72,12.72,0,0,0-5.93-1.37,21.79,21.79,0,0,0-9.13,2.27c-3.64,1.89-7.28,4.77-8,5.8Z" transform="translate(-0.01 0)"/><path class="cls-1" d="M285.82,110.42c1.18,0,2.49.06,3.74.18,8.2.6,13.4,5.4,16.3,14.8,4,13.7,6,32.8,4.4,43.6-.8,5.1-1.4,6-7.9,12.3-3.8,3.8-8.1,7.3-9.3,7.8q-3.3,1.2-2.4,5.4c.1.5.1,6.4,0,13s-.2,20.1-.3,30l-.1,18,6.4.5c6.4.5,9.3,2.6,5.1,3.7-1.2.3-2.1,1-2.1,1.5s-2.35.63-5.74.63c-6.66,0-17.31-.73-21.76-1.73-5.4-1.2-7.7-2.7-5.4-3.6.8-.3,5.7-.6,10.9-.8l9.5-.2.1-5c.4-14,.7-45.9.5-52.5l-.1-7.5-4.9-2.7c-12.8-7-18.4-21-18.5-45.8-.1-10.7.1-11.9,2.7-17.3,2.9-5.8,10.5-12.8,15.2-14a18,18,0,0,1,3.66-.28m1.34,77.49.7-3.7c.6-3.3.3-17.6-.7-33.7-.7-9.9-.7-34.6-.1-35.2.25-.24.45-.48.62-.48.9,0,1.07,6.42,2.58,51.88.48,13.79.46,19.21,2.48,19.21,1.4,0,3.79-2.64,8-6.91,5.8-5.8,6.7-7.8,7.3-17.7.3-4.4-1.6-21.2-3.3-29.3-1.09-5.09-3.5-12.74-4-12.74-.05,0-.09.08-.1.24s0,.18-.11.18-.8-.57-1.49-1.48a13.54,13.54,0,0,0-4.4-3.7,13.26,13.26,0,0,0-6.15-1.42,22.18,22.18,0,0,0-9.35,2.32c-4.5,2.2-9.9,6.6-8.1,6.6.4,0-.2.9-1.3,2.1-3.3,3.5-4.5,15.5-2.7,26.9.3,1.9.8,5.5,1.1,8,.9,6.6,3.5,14.1,6.2,17.6,1.2,1.7,2.3,3.5,2.3,4s2.4,2.3,5.3,4.1l5.2,3.2m-7,71.1c1.5,0,2.4-.4,2-1a2.5,2.5,0,0,0-3.5-.5,2.37,2.37,0,0,0-.5.5c-.4.6.5,1,2,1m5.66-149.58a19.1,19.1,0,0,0-3.92.32c-4.95,1.26-12.8,8.45-15.83,14.51-2.7,5.61-2.91,6.93-2.81,17.76.11,25.14,6,39.53,19,46.67l4.39,2.42.09,6.92c.21,6.67-.1,38.52-.49,52.45l-.09,4.05-8.54.18c-4.54.18-10.17.47-11.23.87-1.34.52-1.57,1.3-1.53,1.86s.17,2.11,7.07,3.65c4.6,1,15.28,1.75,22,1.75,5.48,0,6.65-.39,6.74-1.47a2.82,2.82,0,0,1,1.35-.69c1.9-.5,2.81-1.3,2.72-2.39-.22-2.41-5.66-3.09-8-3.27l-5.47-.43.09-17.07c0-3.4.07-7.22.11-11,.06-7.19.13-14.62.19-19,.06-3.39.15-12.38,0-13.21-.64-3,.6-3.85,1.76-4.27,1.51-.63,6-4.37,9.66-8,6.45-6.25,7.32-7.37,8.18-12.85,1.59-10.75-.35-30.08-4.43-44-3-9.82-8.65-14.89-17.18-15.52-1.19-.11-2.52-.18-3.82-.18Zm2.61,4.66h.08a12.19,12.19,0,0,1,5.69,1.31,12.61,12.61,0,0,1,4,3.37h0c1.18,1.57,1.75,1.84,2.16,1.87a90.72,90.72,0,0,1,3.37,11.54c1.67,7.95,3.57,24.77,3.28,29-.58,9.6-1.31,11.36-7,17.07-.54.53-1,1-1.51,1.52-2.57,2.62-5,5.09-5.81,5.09-.89-.57-1.1-6.86-1.36-14.81l-.12-3.43-.18-5.54c-.68-20.52-1.06-31.82-1.38-38.36-.16-3.28-.31-5.3-.48-6.53a3.48,3.48,0,0,0-.79-2.16ZM272,121.53a32.08,32.08,0,0,1,7.58-5.22,22.58,22.58,0,0,1,7.19-2.12c-.12.1-.23.21-.33.31l-.1.11c-.34.33-.76.75-.73,14.82,0,6.69.16,15.76.54,21.15,1,15.88,1.29,30.27.71,33.45l-.43,2.27-4-2.44a27.86,27.86,0,0,1-4.85-3.51c-.09-.47-.51-1.55-2.46-4.31-2.56-3.33-5.14-10.69-6-17.16-.29-2.37-.78-6-1.11-8-1.72-10.9-.6-22.83,2.44-26.06,1.71-1.86,1.88-2.51,1.6-3.13a.61.61,0,0,0-.07-.14Z" transform="translate(-0.01 0)"/><path class="cls-1" d="M182.79,159.32c-2,0-3.38-.93-6.17-3.55s-4.31-5.2-4.85-7.87c-.94-5.37,1.65-10.24,5.9-11.09,1.71-.3,3-1.07,3.11-1.45.34-.89,1.56-1.36,3.46-1.36a13.2,13.2,0,0,1,6.5,1.68c1.34.78,3.38,3.61,4.57,5.89,1.84,3.89,2,5.14.93,8.39-1.23,4.3-6.39,8.28-12,9.24a11.81,11.81,0,0,1-1.46.12Zm3.93-21.82c-1.37,0-2.56,2.46-2.56,5.2s0,2.8,3,2.8c1.77,0,3.88.24,3.93,1.39s-2.53,1.68-4.08,1.81-2.64.23-2.94.6-.23,1.23-.11,2.66a18.48,18.48,0,0,0,.63,3.46,15.88,15.88,0,0,0,3.24-1.36c2.93-1.6,4.62-3.5,5-5.65q.64-3.49-3.16-8a14,14,0,0,0-2.95-2.91Zm-9.06,10c-1.32,0-2.16.25-2.36.71s-.09,1.62,2.73,4.65l2.06,2.35.07-3.52c0-4.19,0-4.19-2.54-4.19Zm1.45-7.75a3.38,3.38,0,0,0-2.44,1.65l-.25.37a5.93,5.93,0,0,0-.85,1.46,12.13,12.13,0,0,0,2.15.47l.63.11a12.41,12.41,0,0,0,1.82.23.74.74,0,0,0,.46-.1c.2-.2.16-1.15.14-1.72-.05-1.53-.68-2.47-1.66-2.47Z" transform="translate(-0.01 0)"/><path class="cls-1" d="M184.24,134.5a12.64,12.64,0,0,1,6.22,1.6c1.2.7,3.2,3.4,4.4,5.7,1.8,3.8,1.9,4.9.9,8-1.2,4.2-6.3,8-11.6,8.9a7.84,7.84,0,0,1-1.37.12c-1.82,0-3.06-.82-5.83-3.42s-4.2-5.1-4.7-7.6c-.9-5.1,1.5-9.7,5.5-10.5,1.7-.3,3.3-1.1,3.5-1.8s1.47-1,3-1m.17,21.44a12.25,12.25,0,0,0,3.65-1.44c6.4-3.5,7.1-8.4,2-14.4-1.4-1.7-2.9-3.1-3.3-3.1-1.7,0-3.1,2.6-3.1,5.7s.2,3.3,3.5,3.3c4.7,0,4.5,1.8-.2,2.2-3.7.3-3.8.4-3.5,3.8a14.1,14.1,0,0,0,.8,3.9.19.19,0,0,0,.15,0m-4.24-11.4c1.09,0,1.17-.56,1.09-2.34s-1-2.95-2.15-2.95a3.82,3.82,0,0,0-2.85,1.85c-1.8,2.7-1.9,2.5,2,3.2a12.31,12.31,0,0,0,1.91.24m.39,12,.1-4.8c0-4.6-.1-4.7-3-4.7-3.9,0-3.9,2,0,6.2l2.9,3.3m3.68-23c-2.15,0-3.51.57-3.91,1.65h0a5.48,5.48,0,0,1-2.73,1.14c-4.54.91-7.3,6-6.31,11.66.56,2.79,2.19,5.44,5,8.14s4.29,3.7,6.52,3.7a9.64,9.64,0,0,0,1.52-.13c5.8-1,11.13-5.12,12.42-9.61,1.07-3.34.92-4.73-1-8.71-1.24-2.37-3.36-5.29-4.8-6.13a13.67,13.67,0,0,0-6.73-1.74Zm.7,21.3a23.7,23.7,0,0,1-.48-2.9,7.26,7.26,0,0,1,0-2.28,8.23,8.23,0,0,1,2.6-.42c3-.26,4.59-1.07,4.54-2.34s-1.54-1.86-4.43-1.86a6.87,6.87,0,0,1-2.3-.21,5.91,5.91,0,0,1-.2-2.09c0-2.7,1.11-4.49,2-4.68a17.17,17.17,0,0,1,2.67,2.72c2.44,2.86,3.46,5.41,3.06,7.58-.37,2-2,3.78-4.77,5.3A18.33,18.33,0,0,1,185,154.8Zm-8.69-11.89c.15-.25.37-.57.56-.86l.27-.39a2.91,2.91,0,0,1,2-1.41c.81,0,1.13,1,1.16,2a9.55,9.55,0,0,1,0,1.31h-.08a12.73,12.73,0,0,1-1.74-.22l-.62-.11c-.57-.1-1.15-.21-1.54-.3Zm3.35,11-1.2-1.37c-3-3.23-2.68-4.09-2.66-4.13s.49-.41,1.9-.41c.66,0,1.64,0,1.75.17a12,12,0,0,1,.25,3.53v2.21Z" transform="translate(-0.01 0)"/><path class="cls-1" d="M357.5,263.91c-2.53,0-5.49-.06-8.55-.17-13.82-.47-15.79-.91-15.79-2.3,0-1.09,1.52-1.86,4.16-2.1,3.27-.26,3.27-.26,3.55-4.73.4-6.48,1.3-6.48,1.73-6.48s1.36,0,1.76,6.68c.28,4.73.28,4.73,3.1,4.73,2.57,0,2.7-.49,2.7-1.3,0-.51.09-1.84.21-3.53.09-1.4.2-3.06.3-4.7.77-10.55,1.34-20.5,1.75-30.62a2.24,2.24,0,0,1-.85.15c-1.13,0-5.38-4.17-6.66-5.44-7.69-7.59-9.25-13.74-9.25-36.56,0-14.36.33-18.25,1.93-23.15.79-2.37,2.23-6.48,3-7.37a1.54,1.54,0,0,0,.19-1.57h0c-.67-1.33,3.62-5.88,4.48-6.77,3.46-3.61,4.76-5,7.06-5a16.06,16.06,0,0,1,2.59.3c4.77.78,10.31,3.48,10.31,5.79a17.17,17.17,0,0,0,1.94,4.56c1,1.86,2.06,4.43,2.06,5.74a3.11,3.11,0,0,0,.72,2.11c.92.51,1.58,3,2.88,16.34a70,70,0,0,1-1.21,23c-.86,3.65-1.72,7.38-2,8.69-1.64,7.56-8.68,19.28-12.57,19.39-.87,0-1.06,2.67-1.32,12.52-.07,2.14-.29,6.49-.52,11.11l-.28,5.5-.57,10.64,5.15-.27c3.07-.2,7.34-.59,9.43-1a16.84,16.84,0,0,1,2.82-.42,1.42,1.42,0,0,1,1.17.44,2,2,0,0,1,.09,1.69c-.31,2-2.43,2.44-4.25,2.58a9.58,9.58,0,0,0-3.64.91C364.91,263.46,364.67,263.91,357.5,263.91ZM354,137.53c-3.65,0-6.84,2.69-9,7.57l-1.3,3c-.68,1.56-1.29,3-1.6,3.64-4.23,8.95-3.71,43.76.8,54a20.13,20.13,0,0,0,5.93,7,16.77,16.77,0,0,1,3.68,3.7c.56-15.19.75-30.9.63-49.68-.15-28,.61-28.75.9-29l.14-.14Zm.8,0a1.21,1.21,0,0,1,.35.24c1.41,1.41,1.69,9.31,1.59,44.49-.1,19,.12,31.64.39,33.73,1.26-.4,5-5,6.44-9.19,4.16-12.46,5.77-21.36,5.77-31.74,0-17.86-3.69-31.17-9.89-35.59a9.78,9.78,0,0,0-4.65-1.9Z" transform="translate(-0.01 0)"/><path class="cls-1" d="M352.26,134.11a16.09,16.09,0,0,1,2.5.29c4.9.8,9.9,3.5,9.9,5.3a16.84,16.84,0,0,0,2,4.8,15.5,15.5,0,0,1,2,5.5,3.59,3.59,0,0,0,.9,2.5c.9.5,1.6,4.7,2.7,16a69.88,69.88,0,0,1-1.2,22.8c-.8,3.4-1.7,7.3-2,8.7-1.7,7.8-8.7,18.9-12.1,19-1.3,0-1.5,1.5-1.8,13-.1,3-.5,10.5-.8,16.6l-.6,11.2,5.7-.3c3.1-.2,7.4-.6,9.5-1a16.82,16.82,0,0,1,2.73-.41c1,0,1,.44.77,1.51-.2,1.3-1.3,2-3.8,2.2-1.9.2-3.7.7-4,1.1s-3,.47-7.16.47c-2.48,0-5.42-.06-8.54-.17-11.7-.4-15.3-.8-15.3-1.8,0-.8,1.5-1.4,3.7-1.6,3.7-.3,3.7-.3,4-5.2.25-4,.75-6,1.24-6s1,2.07,1.26,6.21c.3,5.1.3,5.2,3.6,5.2,2.4,0,3.2-.4,3.2-1.8,0-.9.3-4.6.5-8.2,2-27.4,2.7-50.5,2.5-83.3-.1-18.2.2-28.7.8-28.7,1.6,0,1.9,8.3,1.8,44.3-.1,18.6.1,34,.5,34.2a.5.5,0,0,0,.27.08c1.49,0,5.63-5.45,7-9.58,4.2-12.6,5.8-21.6,5.8-31.9,0-18.2-3.8-31.5-10.1-36A9.81,9.81,0,0,0,354,137c-3.76,0-7.19,2.73-9.46,7.87-1.1,2.5-2.4,5.5-2.9,6.6-4.3,9.1-3.7,44.2.8,54.4a20.79,20.79,0,0,0,6.1,7.2c3.8,2.9,5.4,5.9,3,5.9-.6,0-3.4-2.4-6.3-5.3-7.6-7.5-9.1-13.6-9.1-36.2,0-14,.3-18.1,1.9-23,1.1-3.3,2.3-6.5,2.9-7.2a2,2,0,0,0,.2-2.2c-.3-.6,1.7-3.4,4.4-6.2,3.6-3.74,4.67-4.79,6.7-4.79m0-1c-2.52,0-3.85,1.39-7.42,5.1-2.47,2.57-5.28,5.93-4.57,7.34l.05.09.06.09a1.23,1.23,0,0,1-.21,1c-.63.79-1.66,3.3-3.05,7.49-1.63,5-2,8.89-2,23.31,0,23,1.59,29.2,9.4,36.91,3.71,3.71,6.07,5.59,7,5.59h.33c-.4,9.88-1,19.63-1.72,29.94-.09,1.65-.21,3.31-.3,4.72-.12,1.76-.21,3-.21,3.55s0,.8-2.2.8c-1.16,0-1.93,0-2.09-.25-.3-.43-.38-1.92-.51-4-.4-6.63-1.3-7.18-2.26-7.18h0c-1,0-1.84.53-2.23,6.95-.13,2-.21,3.37-.52,3.78s-1.16.37-2.57.49c-3,.27-4.62,1.19-4.62,2.59,0,1.93,2.28,2.32,16.27,2.8,3.06.11,6,.17,8.57.17,6.75,0,7.59-.35,7.93-.81a11.26,11.26,0,0,1,3.34-.76c1.81-.15,4.28-.62,4.68-3a2.35,2.35,0,0,0-.2-2.08,1.92,1.92,0,0,0-1.56-.63,17,17,0,0,0-2.92.43c-2.06.39-6.3.79-9.37,1l-4.58.25.54-10.09c.09-1.76.18-3.63.28-5.47.23-4.63.45-9,.52-11.15.15-5.48.29-11.14.83-12h0c4.16-.12,11.33-11.9,13.05-19.78.32-1.47,1.24-5.48,2-8.69a70.46,70.46,0,0,0,1.22-23.12c-1.35-13.9-2-16-3.1-16.72a3,3,0,0,1-.5-1.69c0-1.45-1.1-4.12-2.12-6a18.25,18.25,0,0,1-1.88-4.32c0-2.81-6.25-5.55-10.73-6.28a16,16,0,0,0-2.67-.31ZM352.05,215a19,19,0,0,0-2.91-2.68,19.78,19.78,0,0,1-5.8-6.82c-4.47-10.15-5-44.69-.8-53.56.32-.7.94-2.13,1.64-3.72.41-1,.86-2,1.27-2.91,1.94-4.38,4.71-6.93,7.87-7.24-.4,1.63-.8,7.17-.69,28.65.12,18.2-.05,33.53-.58,48.28Zm5.5.22c-.24-3.47-.41-15.59-.32-32.9.1-32.88-.16-41.34-1.2-44a10.43,10.43,0,0,1,3.12,1.58c6.07,4.34,9.68,17.49,9.68,35.19,0,10.32-1.61,19.18-5.74,31.59a23.91,23.91,0,0,1-5.47,8.53Z" transform="translate(-0.01 0)"/><path class="cls-1" d="M187.76,231.5a2.29,2.29,0,0,1-2-1.22,2.54,2.54,0,0,1-.06-2.53,2.13,2.13,0,0,1,1.74-1.23c.81,0,1.69.77,1.69,2.48C189.16,230.24,188.68,231.5,187.76,231.5Z" transform="translate(-0.01 0)"/><path class="cls-1" d="M187.47,227c.65,0,1.19.73,1.19,2,0,1.1-.4,2-.9,2a2,2,0,0,1-1.87-2.13,2,2,0,0,1,.27-.87,1.67,1.67,0,0,1,1.31-1m0-1a2.56,2.56,0,0,0-2.17,1.49,3.08,3.08,0,0,0,0,3,2.8,2.8,0,0,0,2.41,1.47c1.12,0,1.9-1.23,1.9-3,0-2-1.13-3-2.19-3Z" transform="translate(-0.01 0)"/><path class="cls-1" d="M1.56,253.5A1,1,0,0,1,.63,253a1.26,1.26,0,0,1,.11-1.27,2.5,2.5,0,0,1,2-1.24,1,1,0,0,1,.93.44,1.27,1.27,0,0,1-.08,1.29A2.82,2.82,0,0,1,1.56,253.5Z" transform="translate(-0.01 0)"/><path class="cls-1" d="M2.76,251c.6,0,.7.4.4,1a2.34,2.34,0,0,1-1.6,1c-.6,0-.7-.5-.4-1a2,2,0,0,1,1.6-1m0-1a3,3,0,0,0-2.47,1.52,1.75,1.75,0,0,0-.1,1.74,1.53,1.53,0,0,0,1.37.74A3.33,3.33,0,0,0,4,252.52H4a1.71,1.71,0,0,0,.06-1.77,1.51,1.51,0,0,0-1.36-.68Z" transform="translate(-0.01 0)"/></svg>