<svg id="Calque_1" data-name="Calque 1" xmlns="http://www.w3.org/2000/svg" viewBox="0 0 371.66 262.37"><defs><style>.cls-1{fill:#fff;}</style></defs><path class="cls-1" d="M297.34,40.59c.3,2.4,2.3,3.8,2.1,1.5a18.09,18.09,0,0,1-.2-2.5c-.1-.8-.7-1.5-1.2-1.5S297.14,39.19,297.34,40.59Z" transform="translate(-52.38 -38.09)"/><path class="cls-1" d="M277.54,46.19c-.7,1,1,2.8,2.8,2.9,1.2,0,.8-1.7-.7-2.9C278.54,45.29,278,45.29,277.54,46.19Z" transform="translate(-52.38 -38.09)"/><path class="cls-1" d="M318.14,47.89c-1.4,2.6-.7,4.2,1,2.5a3.56,3.56,0,0,0,.7-2.9C319.54,45.79,319.34,45.79,318.14,47.89Z" transform="translate(-52.38 -38.09)"/><path class="cls-1" d="M294.64,52.79a2.61,2.61,0,0,1-1.7.9c-.5.1-1.3.2-1.8.3-2.5.3-7,5.9-7.6,9.3-1.3,6.8.3,9.3,7,10.7a7.79,7.79,0,0,1,2.3,1.3c.9.8,2.9.7,6.8-.2,7-1.7,8.9-4.1,8.1-10.6C306.94,57.29,298,49.39,294.64,52.79Zm5,3.8a2.67,2.67,0,0,0,2.1,1.5c1.3,0,4.3,5.5,4.3,7.9,0,.6-1.2,2.2-2.7,3.6-2.4,2.2-3.4,2.5-6.3,1.9a32.46,32.46,0,0,0-5.5-.6c-2.7.1-5.5-3.1-4.8-5.7.3-1.1.9-2.1,1.3-2.1s1.2-.9,1.5-2.1c.7-2.1,6-5.9,8.3-5.9A2.26,2.26,0,0,1,299.64,56.59Z" transform="translate(-52.38 -38.09)"/><path class="cls-1" d="M220.84,55.79a12.83,12.83,0,0,0-5.2,9.5c-.1,1.7-.8,2.1-4.1,2.2-6.6.3-9.8,2.4-11.5,7.8-1.4,4.5-1.7,4.8-5,4.9-6.4.3-7.5.3-12.3-.5-4.5-.7-4.7-.6-4.4,1.5s.7,2.2,11.2,2c6-.1,11.1-.3,11.3-.6a5.7,5.7,0,0,0,.7-2.8,19.5,19.5,0,0,1,1.9-5.4c1.7-3.4,6.5-5,9.7-3.3,2.9,1.6,7.2-1.5,6.5-4.6-.3-1.3-.2-2.6.4-2.9a2.34,2.34,0,0,0,1-1.6c0-.6-.4-.7-1-.4s-.7-.1-.4-.9.9-1.5,1.2-1.4a7.27,7.27,0,0,0,3-1.1c2-1.1,2.9-.9,6.3.8,2.2,1.2,4.5,1.9,5,1.6s.9.5.9,1.9c0,2.2.5,2.6,2.9,2.6,1.7,0,3.3.4,3.6,1,.8,1.3,3.5,1.3,3.5.1,0-2-3.4-4.3-5.7-3.8-1.7.3-2.3,0-2.3-1.5a3.63,3.63,0,0,0-2.4-2.8,8.08,8.08,0,0,1-3.2-2.1c-.4-.8-.3-1,.4-.5s1.2.2,1.2-.3C234,53.39,223.84,54,220.84,55.79Z" transform="translate(-52.38 -38.09)"/><path class="cls-1" d="M268.34,62.79c-2,.7-1.5,2.3.7,2.3,1.1,0,2-.4,2-.9C271,62.89,269.84,62.29,268.34,62.79Z" transform="translate(-52.38 -38.09)"/><path class="cls-1" d="M316,65.09c0,.5.9,1,2,1s2-.5,2-1-.9-1-2-1S316,64.49,316,65.09Z" transform="translate(-52.38 -38.09)"/><path class="cls-1" d="M273.34,82.29c-2.1,2.8-2.4,3.8-.9,3.8a2.64,2.64,0,0,0,2.1-2.1C275.34,81.49,274.74,80.59,273.34,82.29Z" transform="translate(-52.38 -38.09)"/><path class="cls-1" d="M355,82.09c0,.7-.8.9-2,.5s-2-.2-2,.4a1.23,1.23,0,0,1-1.3,1.1c-3.5,0-6.5,6.6-4.2,9.6,1.4,1.9,1.4,1.9,1-.2-.4-2.7,4.1-8,7.4-8.7,1.7-.4,3.1.2,5.1,2.1,3.2,3.1,5,3.8,5,1.8,0-.7-1.5-2.5-3.2-3.8C356,81.29,355,80.79,355,82.09Z" transform="translate(-52.38 -38.09)"/><path class="cls-1" d="M312,85c0,.6.9,1.5,2.1,2.1,1.8,1,2,.9,1.7-.7C315.54,84.49,312,83.19,312,85Z" transform="translate(-52.38 -38.09)"/><path class="cls-1" d="M292.44,90.69a15.63,15.63,0,0,1,.6,2c0,.2.5.4,1,.4s1-.9,1-2-.7-2-1.6-2C292.34,89.09,292,89.59,292.44,90.69Z" transform="translate(-52.38 -38.09)"/><path class="cls-1" d="M362.34,96.09c-.2,5.6.7,6.1,4.3,2.5,1.4-1.4,3.4-2.5,4.5-2.5,2.7,0,7.1,4.6,6.6,6.8-.3.9-.8,2.9-1.1,4.4a10.77,10.77,0,0,1-4.3,5.3c-3.6,2.4-3.6,2.5-1.3,2.6a17.86,17.86,0,0,0,3.5-.1,80.34,80.34,0,0,1,19-.7c1.7.1,3-.3,3-.8s-1.9-1-4.2-1-4.3-.2-4.3-.6-1.3-.6-3-.6-3,.4-3,.8c0,.9-2.6.6-3.6-.4-.4-.4,0-1.5.9-2.4,2.3-2.6,3.8-7.3,3.1-9.5-.3-1-2.3-3-4.5-4.3-4-2.6-8.6-3.4-7.3-1.3.5.8.2.9-1.1.5a3.39,3.39,0,0,0-3.1.4c-1,.8-1.5.5-2-1.5C363.44,89.59,362.44,90.69,362.34,96.09Z" transform="translate(-52.38 -38.09)"/><path class="cls-1" d="M343.54,97.29c.5,1.3.2,1.5-1.4,1.1-7.1-1.9-14.6,4.8-13.9,12.4l.3,3.8-5.5.2c-7.7.4-12,1.2-12,2.3,0,2.3,18.5.4,20-2a10.1,10.1,0,0,0,.3-4.9c-.4-3,0-4,2.5-6.5s3.7-2.8,7.1-2.4c4.6.4,6.3-1.5,3.6-4.1C343,95.69,342.94,95.79,343.54,97.29Z" transform="translate(-52.38 -38.09)"/><path class="cls-1" d="M142.84,108.69a28.76,28.76,0,0,1-6.4.5c-10.7.1-12.6,1-19.5,10.2a98.57,98.57,0,0,1-8.2,9.6,30.35,30.35,0,0,0-4.1,4c-1.2,1.3-3,3.5-4.2,4.7s-4.9,5.7-8.5,10a84.25,84.25,0,0,1-7.1,8.2c-.9.4-9.1,10.9-15,19.2-3.1,4.4-4.4,7-3.8,7.9s-.9,3.8-4.2,8.7c-4.3,6.3-4.8,7.7-3.7,9,.9,1.1,2.2,1.4,4.1,1l2.9-.6-.6,7.3c-.3,3.9-.8,16.6-1.1,28.2-1.4,47.3-1.7,53.5-2.5,53.5A1,1,0,0,1,60,289c0-.8-.5-.8-1.5.1-2.4,2-1.8,2.5,3.3,2.7,12.7.3,35.7,1.5,36.3,1.9.4.2.9,0,1.1-.6s1.5-.7,3.8-.1a127.8,127.8,0,0,0,15,1.6c6.3.3,15.6,1,20.6,1.5s16.3.9,25.1.9,17.5.6,19.3,1.1c4.9,1.4,93.1.6,101.5-.9,3.9-.7,8.7-1.6,10.8-2s3.8-1,3.8-1.6c-.1-.9-5.9-.9-9.3.1-1.7.5-1.8-.7-1.9-14.8-.1-8.4-.1-17.3,0-19.8,1.8-50.6,2.1-67,1.1-67-.5,0-1.3-1.2-1.6-2.7a9.88,9.88,0,0,0-2.1-4.1c-1.7-1.7-1.7-3.3,0-2.7a7,7,0,0,1,2.4,3.3c.7,1.5,2.1,4.8,3.3,7.4,2.2,5.1,3.5,6.4,4.5,4.8.6-1-2.2-8.4-4.5-12a40.76,40.76,0,0,1-2.7-5,46.63,46.63,0,0,0-4.3-6.6,72.78,72.78,0,0,1-6.5-10,257.07,257.07,0,0,0-15.5-24.4c-1.5-1.9-5.5-7.3-8.9-12-5.1-7-13.4-15-15.6-15-1.1,0-.4,1.8,1.5,4,1.1,1.3,2,2.6,2,3.1s2.8,4.2,6.3,8.6c10.5,13.2,14.7,19.1,14.7,20.7a2.52,2.52,0,0,0,1,2.1,12.28,12.28,0,0,1,2.5,3.9,29.38,29.38,0,0,0,3.3,5.2,23.22,23.22,0,0,1,3.4,6,61.74,61.74,0,0,0,4.3,8.5c1.4,2.4,4.3,8,6.4,12.4l3.9,8.1-.5,28.4c-.2,15.7-.5,37.7-.6,48.9l-.2,20.5-6,.4c-3.3.2-6.6.9-7.4,1.5-1.2,1-1.3.9-.8-.6.6-1.7.3-1.8-2.6-1.1a73.77,73.77,0,0,1-11.4.7c-4.6,0-8,.4-7.7.8s-.2.6-1,.3c-1.5-.6-2.1-2.5-1.7-4.8.2-.9,0-46.8-.1-49.4-.1-.9-2.8-1.2-9.9-1.2-11.3,0-12.4.6-13.4,7.4-2,12.8-2.3,46.6-.5,46.6.4,0,1.1-8.2,1.4-18.3.7-21.5,1.4-29.7,2.8-31.5.7-.8,3.8-1.2,8.8-1.2h7.8l.5,9.2c.3,5.1.4,12.2.3,15.8s-.3,11.1-.4,16.6l-.2,10.1-7.1-.1c-3.9-.1-7.2,0-7.4.2-.6.7-15.3.7-14.9.1.2-.3-3.4-.5-8-.5s-8.2.4-7.9.8c.8,1.4-2.8.8-4.3-.7a5.78,5.78,0,0,0-2.5-1.5c-.5,0-.9.7-.9,1.5s-.4,1.5-1,1.5a1.08,1.08,0,0,1-1-1,1,1,0,0,0-1.2-.9c-4,.5-5.9-.2-5.4-1.9.9-2.9,1.1-42.6.3-44-.5-.6-.4-1.2.1-1.2s1.1-9.4,1.1-24.1c.1-21.6.3-24.5,2.1-27.8,3.2-6.4,17-27.5,18.7-28.8a6.44,6.44,0,0,0,2-3.2c.1-1.1,6.9-11.8,14.9-23.8s14.9-22.3,15.1-23c.6-1.4-4.9-3-12.7-3.6-3-.3-8.4-1-12-1.5s-10.9-1.3-16.3-1.6c-7.8-.5-9.7-.4-9.1.6s.5,1-.7.1c-.8-.6-3.5-1.2-5.9-1.2h-11.5c-3.8,0-9.9.1-13.5.1a43.36,43.36,0,0,1-9.1-.5C144.54,108.39,143.14,108.39,142.84,108.69Zm15.7,3c27-.1,41.6.6,57.5,2.5,4.7.5,10.4,1.2,12.7,1.5,4.8.6,6,1.6,3.8,3.4-1.2,1-1.5,1-1.5-.1-.1-.9-.4-.8-1.1.4-2.5,4.3-16.7,18.9-17.8,18.3-.9-.6-10.1-1.2-31.1-2.1-29-1.2-36.9-1.7-47.9-3.1-17-2.1-19.1-2.5-19.1-3.8,0-.6,1.7-2.8,3.7-5,3.5-3.8,3.7-3.9,10.7-3.8,3.9.1,8.3.3,9.8.5s3.2.1,3.9-.4c1.4-.8-4.7-1.9-12.8-2.2-4.2-.2-5.3-.6-5.3-1.8,0-.9,1.4-2.2,3-2.9s3-1.8,3-2.4.3-.8.8,0S140.64,111.69,158.54,111.69ZM223,132c0,.5-.7,1.1-1.5,1.5-1.5.5-2-.5-.8-1.7C221.64,130.79,223,130.89,223,132Zm-104.4,1c4.1,1.4,10,2,24.4,2.7,6.9.3,13.2.8,14,1.1a74.58,74.58,0,0,0,11,1c5.2.2,15.4.7,22.5,1.1s14.9.8,17.3.8c3.9-.1,5.7,1.4,3.3,2.9-.5.3-1.2,1.8-1.6,3.5-.7,3.3-3.2,4.5-7.8,3.6-1.8-.3-4.1-.8-5.2-1-4.5-.8-28-3-31-2.8a4.82,4.82,0,0,1-3-.8c-.6-.5-5.3-1.1-10.5-1.4s-12.6-.9-16.5-1.5c-6.5-.9-21.6-2-29.3-2.1h-3.4l3.1-2.6c1.7-1.4,2.9-3,2.6-3.4C107.34,132.19,113.94,131.49,118.64,133Zm102.4,2.8c0,1-2,4-2,3.1a12.59,12.59,0,0,0-.6-2.2c-.4-1.1-.1-1.6,1-1.6C220.34,135.09,221,135.39,221,135.79Zm-4.5,7c-2.7,4.9-4,6.7-5.5,7.9-2.3,1.9-3.4.4-1.2-1.7a10.14,10.14,0,0,0,2.7-4c.9-2.9,2.7-4.8,4.3-4.9C217.74,140.09,217.74,140.79,216.54,142.79Zm-101.4.8c3.5.3,10,.7,14.4,1s12.7.9,18.5,1.5,15.2,1.5,21,2c9,.8,21.3,2.3,28.5,3.5a31.73,31.73,0,0,0,4.7.4l2.7.1-3.1,5.8c-3.1,5.7-5.2,6.9-8.5,4.9-.9-.6-5.8-1-23.5-2.1a15.18,15.18,0,0,1-4.5-.9c-.3-.4-1.3-.2-2,.5-1.1.9-1.6.9-2.2,0-.4-.6-4.5-1.3-9.6-1.6s-9.4-.5-10-.6a17.49,17.49,0,0,0-3.5-.1c-1.9.1-2.2.4-1,1,1.9,1.1,21.7,3.4,22.9,2.6a1.22,1.22,0,0,1,1.6.5c.3.5,3.4,1,6.8,1.1s7.8.1,9.7.3,3.8-.3,4.3-.9,1-.6,1.5.2,3.6,1.6,6.9,1.9l6.1.7-1.1,3.1a17.84,17.84,0,0,1-1.9,4.1,28.83,28.83,0,0,0-2.1,2.8c-1,1.4-1.8,1.6-3.7.9a53,53,0,0,0-8.7-1.7c-5.3-.6-6.2-.4-7.2,1.2s-1.1,1.7-.9-.2c.3-1.7-.3-2-4.2-2.2-2.5-.1-6.9-.4-9.7-.6s-5-.1-4.7.4c.6,1.1-1,1.2-2,.2-.8-.8-1.2-.9-13.6-2.3-5.2-.6-14.1-1.3-19.8-1.6s-10.7-.6-11.2-.9-1,0-1.2.6-1.2.7-3.3-.1c-1.7-.6-6.8-1.3-11.4-1.5-8.4-.4-11.2-1.1-7.6-2.1,1.1-.3,3-2.1,4.3-4s2.7-3.4,3.3-3.4a.55.55,0,0,0,.5-.9c-.3-.5,0-1.3.7-1.9.9-.8,2.7-.6,6.2.4,12.2,3.7,12.4,3.7,13.8,2.6.8-.7,1.6-1,1.8-.8.7.8,17.2,1.6,19.6,1,4-1,2.5-2.5-2.4-2.3a40.71,40.71,0,0,1-7.7-.6c-2.1-.6-2.7-.5-2.2.4.7,1.1-.6,1.6-1.7.5-.3-.4-2.5-.8-4.9-1.1-7.1-.7-9.3-1-9.8-1.3a15,15,0,0,0-4.5-.9,8,8,0,0,1-3.5-1.1c-1.2-.8-1.2-1.1.3-2.8a6.47,6.47,0,0,0,1.7-2.9c0-.6,1-1.4,2.3-1.8,4-1.4,7.2-2.1,7.8-1.8C108.54,142.89,111.64,143.29,115.14,143.59ZM209,154a1.65,1.65,0,0,1-.8,1.3c-.4.1-1.8,2-3.1,4-2.4,4-5,5.4-2.9,1.5a18.16,18.16,0,0,1,1.9-2.7,17.1,17.1,0,0,0,1.8-2.8C207.14,153.09,209,152.29,209,154Zm-109.1,16.2a5.87,5.87,0,0,1,3.5.8c.6.4,4.6.8,8.9.7s8,.1,8.3.6a2.24,2.24,0,0,0,1.5.8c.6,0,.7-.5.4-1s0-1,.9-1a2,2,0,0,1,1.8.9c.2.5,5.5,1.2,11.8,1.6s16.2,1.3,22,2.2,12.1,1.7,14,1.9a13.11,13.11,0,0,1,3.5.5,32.11,32.11,0,0,0,4.5.5c9.1.6,9.7,1.2,5.9,6.5a12.49,12.49,0,0,0-1.9,3.6c-.1,3-1.7,3.3-9.1,1.9-4.1-.7-8.1-1.4-8.9-1.5-7.9-.8-26.4-3.1-27.8-3.5-.9-.2-6.2-.8-11.7-1.1s-10.2-.8-10.5-1-10.2-.6-22-1-21.6-.8-21.8-1c-.7-.6,2.5-6.2,4.5-7.8,1.2-1,2-2.4,1.7-3.2-.5-1.1,1-1.3,8.8-.9C93.34,170,98.64,170.19,99.94,170.19ZM75,173.59c-.7.9-1.5,1.3-1.9,1s.1-1,.9-1.5C76.14,171.69,76.44,171.89,75,173.59Zm208.5,6.3c-.6.7-3.4-2.9-3.4-4.3,0-.6.9.1,2,1.4S283.84,179.59,283.54,179.89Zm-211.9,1.9c-1,1-1.9-.5-1-1.8.6-1.1.8-1.1,1.2,0A2.09,2.09,0,0,1,71.64,181.79Zm28.4,3.4c8,.1,15.5.6,16.7,1s6.6,1,12,1.4,10.9.8,12.3,1.1c3.6.8,12.8,2.1,27,4,6.9.9,12.7,1.8,12.9,2s-1,2.2-2.8,4.5c-2.4,2.9-3,4.4-2.2,5.2s1.7.3,3.4-1.5l2.4-2.6-.3,30.2c-.2,16.5-.4,32.1-.4,34.6,0,21.7-.2,26.5-1.2,27.7-.8,1.1-4.6,1.2-18.2.8-17.1-.5-22.1-.7-47.6-2.6-16.9-1.2-23.9-1.7-31.4-2.6-3.2-.3-6.8-.7-8-.8s-3.8-.3-5.9-.4l-3.9-.1.8-32.8c.4-18,.8-34.7,1-37.2s.2-6.9.3-9.8L67,202l13.3.6c7.2.3,14.3.8,15.7,1.1s6.8.6,12,.9,12.9.7,17,.9c21.3,1.3,48,1.8,48,.8,0-1.2-13.6-2.2-35-2.6-8-.2-15.2-.6-16-.9s-6.7-.8-13.1-1-11.9-.6-12.5-.9-8.5-.9-17.9-1.3-17.2-.9-17.4-1.1c-.8-.8,2.7-6.6,6.9-11.6,2.4-2.8,2.7-2.9,10-2.4C82.14,184.79,92,185.09,100,185.19Z" transform="translate(-52.38 -38.09)"/><path class="cls-1" d="M144.24,120.39c-1,1.2.1,1.3,6.6,1.2,4.2-.1,8.5.2,9.6.7,1.4.8,1.6.7,1.1-.2s-.1-1.1,2.1-.5a112.15,112.15,0,0,0,13.9,1.1c6.1.2,11.2.4,11.5.5,1.3.5,18,.4,18-.2,0-.3.7-.6,1.5-.6s1.5.4,1.5.9,3.1.8,7,.7,6.7-.5,6.5-1,.1-.9.7-1.2-8.5-.4-20.4-.5-22.2-.3-22.7-.6-8.8-.9-18.4-1.1C148.74,119.09,145.14,119.29,144.24,120.39Z" transform="translate(-52.38 -38.09)"/><path class="cls-1" d="M333.54,147.79c-4.7,1.2-12.3,8.2-15.2,14-2.6,5.4-2.8,6.6-2.7,17.3.1,24.8,5.7,38.8,18.5,45.8l4.9,2.7.1,7.5c.2,6.6-.1,38.5-.5,52.5l-.1,5-9.5.2c-5.2.2-10.1.5-10.9.8-2.3.9,0,2.4,5.4,3.6,6.7,1.5,27.5,2.4,27.5,1.1,0-.5.9-1.2,2.1-1.5,4.2-1.1,1.3-3.2-5.1-3.7l-6.4-.5.1-18c.1-9.9.2-23.4.3-30s.1-12.5,0-13q-.9-4.2,2.4-5.4c1.2-.5,5.5-4,9.3-7.8,6.5-6.3,7.1-7.2,7.9-12.3,1.6-10.8-.4-29.9-4.4-43.6-2.9-9.4-8.1-14.2-16.3-14.8A28.24,28.24,0,0,0,333.54,147.79Zm12.5,3.8a13.54,13.54,0,0,1,4.4,3.7c.9,1.2,1.6,1.8,1.6,1.3.1-1.8,2.9,6.9,4.1,12.5,1.7,8.1,3.6,24.9,3.3,29.3-.6,9.9-1.5,11.9-7.3,17.7-10.3,10.4-9.7,11.1-10.5-12.3-1.8-54.2-1.7-52.9-3.2-51.4-.6.6-.6,25.3.1,35.2,1,16.1,1.3,30.4.7,33.7l-.7,3.7-5.2-3.2c-2.9-1.8-5.3-3.6-5.3-4.1s-1.1-2.3-2.3-4c-2.7-3.5-5.3-11-6.2-17.6-.3-2.5-.8-6.1-1.1-8-1.8-11.4-.6-23.4,2.7-26.9,1.1-1.2,1.7-2.1,1.3-2.1-1.8,0,3.6-4.4,8.1-6.6C336.24,149.79,341.84,149.39,346,151.59Zm-12.5,143.5c.4.6-.5,1-2,1s-2.4-.4-2-1a2.5,2.5,0,0,1,4,0Z" transform="translate(-52.38 -38.09)"/><path class="cls-1" d="M232.64,172.59c-.2.7-1.8,1.5-3.5,1.8-4,.8-6.4,5.4-5.5,10.5.5,2.5,2,5,4.7,7.6,3.4,3.2,4.5,3.7,7.2,3.3,5.3-.9,10.4-4.7,11.6-8.9,1-3.1.9-4.2-.9-8-1.2-2.3-3.2-5-4.4-5.7C239,171.39,233.24,171,232.64,172.59Zm8.8,4.6c5.1,6,4.4,10.9-2,14.4-1.9,1-3.6,1.6-3.8,1.4a14,14,0,0,1-.8-3.9c-.3-3.4-.2-3.5,3.5-3.8,4.7-.4,4.9-2.2.2-2.2-3.3,0-3.5-.2-3.5-3.3s1.4-5.7,3.1-5.7C238.54,174.09,240,175.49,241.44,177.19Zm-8.8,2.1c.1,2.5-.1,2.6-3,2.1-3.9-.7-3.8-.5-2-3.2C229.74,175.29,232.54,175.89,232.64,179.29Zm-.6,9.5-.1,4.8-2.9-3.3c-3.9-4.2-3.9-6.2,0-6.2C231.94,184.09,232,184.19,232,188.79Z" transform="translate(-52.38 -38.09)"/><path class="cls-1" d="M396.94,176c-2.7,2.8-4.7,5.6-4.4,6.2a2,2,0,0,1-.2,2.2c-.6.7-1.8,3.9-2.9,7.2-1.6,4.9-1.9,9-1.9,23,0,22.6,1.5,28.7,9.1,36.2,2.9,2.9,5.7,5.3,6.3,5.3,2.4,0,.8-3-3-5.9a20.81,20.81,0,0,1-6.1-7.2c-4.5-10.2-5.1-45.3-.8-54.4.5-1.1,1.8-4.1,2.9-6.6,3.4-7.7,9.4-10,15.2-5.8,6.3,4.5,10.1,17.8,10.1,36,0,10.3-1.6,19.3-5.8,31.9-1.5,4.4-6.1,10.3-7.3,9.5-.4-.2-.6-15.6-.5-34.2.1-36-.2-44.3-1.8-44.3-.6,0-.9,10.5-.8,28.7.2,32.8-.5,55.9-2.5,83.3-.2,3.6-.5,7.3-.5,8.2,0,1.4-.8,1.8-3.2,1.8-3.3,0-3.3-.1-3.6-5.2-.5-8.2-2-8.3-2.5-.2-.3,4.9-.3,4.9-4,5.2-2.2.2-3.7.8-3.7,1.6,0,1,3.6,1.4,15.3,1.8,8.3.3,15.4.2,15.7-.3s2.1-.9,4-1.1c2.5-.2,3.6-.9,3.8-2.2.4-1.7,0-1.8-3.5-1.1-2.1.4-6.4.8-9.5,1l-5.7.3.6-11.2c.3-6.1.7-13.6.8-16.6.3-11.5.5-13,1.8-13,3.4-.1,10.4-11.2,12.1-19,.3-1.4,1.2-5.3,2-8.7a70,70,0,0,0,1.2-22.8c-1.1-11.3-1.8-15.5-2.7-16a3.58,3.58,0,0,1-.9-2.5,15.48,15.48,0,0,0-2-5.5,16.64,16.64,0,0,1-2-4.8c0-1.8-5-4.5-9.9-5.3C402,170.79,401.74,171,396.94,176Z" transform="translate(-52.38 -38.09)"/><path class="cls-1" d="M237.54,265.09a2,2,0,0,0,1.6,3c.5,0,.9-.9.9-2C240,264,238.54,263.39,237.54,265.09Z" transform="translate(-52.38 -38.09)"/><path class="cls-1" d="M52.54,289.09c-.3.5-.2,1,.4,1a2.34,2.34,0,0,0,1.6-1c.3-.6.2-1-.4-1A2,2,0,0,0,52.54,289.09Z" transform="translate(-52.38 -38.09)"/></svg>