<svg id="Calque_1" data-name="Calque 1" xmlns="http://www.w3.org/2000/svg" viewBox="0 0 166.82 260.15"><defs><style>.cls-1{fill:#984634;}</style></defs><path class="cls-1" d="M156.2,61.92a49.54,49.54,0,0,1,.08-7.41c.59-7.36,2.91-14,7.79-19.69A27.65,27.65,0,0,1,171.46,29a79.63,79.63,0,0,1,14.84-6.81c4.19-1.35,8.45-2.45,12.9-2.23,4.19.22,8.41.36,12.47,1.72a34.53,34.53,0,0,1,13.07,7.47A26.5,26.5,0,0,1,231,38.5a28.58,28.58,0,0,1,2.28,9,62.48,62.48,0,0,1,0,7.11,47.63,47.63,0,0,1-.94,7.14c-1.45,6.89-4.21,13.12-9.12,18.28A27.65,27.65,0,0,1,219,83.74a36.18,36.18,0,0,1-12.2,5.79,30.14,30.14,0,0,1-7,.59c-.7,0-1.49-.25-2.08.13s-.72,1.11-1,1.7c-1.5,2.81-3,5.62-4.47,8.45A75.46,75.46,0,0,1,187,109c-2.44,3.49-4.53,7.19-6.71,10.84a114.16,114.16,0,0,1-10.44,14.58c-2.06,2.47-3.9,5.13-6,7.56-2.37,2.72-4.56,5.6-7.11,8.17-1.19,1.19-1.86,2.75-2.94,4-.23.27-.09.55,0,.82a28.19,28.19,0,0,1,.41,4.1q.24,3.27.55,6.54c.05.5.06,1,.09,1.48.14,2.3.18,4.6.29,6.89.14,2.83.08,5.66.22,8.48.09,1.95.06,3.9.2,5.83s.13,3.89.2,5.83c.11,3.07.24,6.15.43,9.21.16,2.47.28,4.94.43,7.41.27,4.45.31,8.9.43,13.35.28,11.08,0,22.17.13,33.25a16.14,16.14,0,0,1,.06,2.95c-.08.49.13.69.65.7,1.38,0,2.75.11,4.13.16,3.08.1,6.13.51,9.19.8,4.37.42,8.68,1.23,13,2a79.48,79.48,0,0,1,12.7,3.37,7.27,7.27,0,0,1,3.07,1.83,5,5,0,0,1,1.21,2.55,2.83,2.83,0,0,1-1.61,3.07,22.17,22.17,0,0,1-7.42,2.75c-3.1.55-6.22.94-9.33,1.31-2.84.34-5.68.69-8.52,1a40,40,0,0,1-4.24.24c-7.19,0-14.38.05-21.57,0-3.07,0-6.15-.22-9.22-.37-4-.2-7.89-.6-11.82-1-2.71-.29-5.42-.53-8.11-.91a75.36,75.36,0,0,1-11.88-2.69,2.14,2.14,0,0,1-1.82-2.15c0-.63-.5-1.14-.34-1.85a5.27,5.27,0,0,1,2.69-3.49,25.22,25.22,0,0,1,5.31-2.14,109,109,0,0,1,10.88-2.31c3.3-.61,6.62-1.14,10-1.44a64.74,64.74,0,0,1,9.65-.17,6.86,6.86,0,0,0,3.24-.26,2.81,2.81,0,0,1,1.05-.09c1.28,0,1.29,0,1.24-1.35-.07-1.91-.18-3.82-.22-5.73q-.07-3.45-.07-6.9c0-8.82,0-17.65-.14-26.46-.1-5.13-.38-10.26-.73-15.38-.2-2.86-.32-5.73-.44-8.59s-.2-5.88-.29-8.82c-.15-5.2-.26-10.4-.46-15.6-.15-3.68-.32-7.36-.74-11a23.69,23.69,0,0,1-.06-4,.92.92,0,0,0-.56-1,95.86,95.86,0,0,1-9.69-6.51,26.73,26.73,0,0,1-5.15-5c-2.47-3.16-5.19-6.09-8-9-1.75-1.85-3.48-3.73-5.3-5.52a59.13,59.13,0,0,1-3.91-4.61c-2.6-3.14-5.3-6.19-7.72-9.47-2.23-3-4.36-6.11-6.68-9.06A126.1,126.1,0,0,0,89.19,95.6c-3.34-3.33-6.32-7-9.48-10.48a98.52,98.52,0,0,0-7.4-7.62c-1-.92-2-1.91-3-2.88a5.85,5.85,0,0,1-1.29-2.05c-.35-.89-.73-1.77-1.16-2.62-.6-1.2-.16-2.36.15-3.5a3.35,3.35,0,0,1,1.7-2,6.37,6.37,0,0,1,3.3-1c3.12,0,6.23-.11,9.34-.26,2.4-.11,4.79-.39,7.18-.54,2-.13,4-.21,5.94-.29,18-.74,36.11-.31,54.17-.43,2.16,0,4.32,0,6.48,0A1.61,1.61,0,0,0,156.2,61.92Zm23.89,25.25a3.18,3.18,0,0,1,.08,3,31.52,31.52,0,0,1-1.36,3.23c-.94,1.9-2,3.75-3.08,5.57-3,5.07-5.63,10.4-8.77,15.41a65.27,65.27,0,0,1-3.37,5.65c-1.56,2-2.86,4.12-4.22,6.24a73,73,0,0,0-4.35,7.77,8.32,8.32,0,0,0-.81,2.18,9.4,9.4,0,0,1-1.9,4,13.46,13.46,0,0,0-1.41,2.12,3,3,0,0,1-2,1.42,1.65,1.65,0,0,1-1.59-.34,11.3,11.3,0,0,1-1.72-1.87c-2-2.48-4-5-6-7.58-1.46-1.91-2.68-4-4.27-5.83a114,114,0,0,1-7.31-9.09,27.91,27.91,0,0,0-6.92-7,20.36,20.36,0,0,1-4.94-4.64c-.74-1-1.43-2-2.18-3-2.18-2.84-4.23-5.76-6.35-8.64-.72-1-1-2.26-2.16-3a.55.55,0,0,1-.17-.27c-.38-1.29-.58-2.56.42-3.71a17,17,0,0,1,5.91-4.75c1.26-.55,2.55-1.05,3.83-1.57a38.72,38.72,0,0,1,9-2.49q3.83-.57,7.68-.89c3.06-.25,6.13-.54,9.2-.56,4.88,0,9.76-.15,14.65.17q4.54.3,9.09.65a10.34,10.34,0,0,0,1.76,0c-.07-.16-.07-.2-.1-.22L165,77.69a23.6,23.6,0,0,1-7.5-10.36.77.77,0,0,0-.84-.61c-3,0-6.08-.19-9.12-.19-11.26,0-22.52-.12-33.78.14-5.37.12-10.75,0-16.13.19-3.5.13-7,.25-10.48.49s-6.77.45-10.16.4c-.57,0-1.14,0-1.7,0-.22,0-.5-.16-.66.22.85.79,1.68,1.61,2.56,2.37a93.61,93.61,0,0,1,8,8.07c3.39,3.75,6.71,7.57,10.25,11.19a132,132,0,0,1,9.85,11.53c4.12,5.32,7.85,10.93,12.33,16,1.5,1.69,2.8,3.56,4.32,5.24,2.33,2.56,4.76,5,7.17,7.54a88.29,88.29,0,0,1,6.61,7.46,26.19,26.19,0,0,0,4.45,4.54c1.32,1.07,2.71,2,4.07,3.06s2.89,1.92,4.37,2.82a.73.73,0,0,0,1.15-.23,11.21,11.21,0,0,1,1.08-1.31c2.54-2.67,4.81-5.57,7.21-8.36,2.24-2.6,4.24-5.39,6.43-8a92.79,92.79,0,0,0,8.16-11.24c1.94-3.21,3.74-6.51,5.81-9.64,1.86-2.8,3.85-5.52,5.45-8.49l5.55-10.39a.62.62,0,0,0,.11-.59A49.58,49.58,0,0,1,180.09,87.17ZM110.8,94.76l.38.5c2.21,2.86,4.67,5.5,6.79,8.43a19.55,19.55,0,0,0,3.89,4c.59.45,1.13,1,1.75,1.39a28.17,28.17,0,0,1,6.73,6.7c1.58,2.09,3.06,4.25,4.82,6.2a58.21,58.21,0,0,1,4.81,5.93c.84,1.23,1.69,2.44,2.57,3.65,1.3,1.8,2.78,3.47,4,5.35a27.58,27.58,0,0,0,1.78,2.23,8.35,8.35,0,0,0,2.05-4.11,4.47,4.47,0,0,1,.45-1.3,71.78,71.78,0,0,1,4.69-8.56c1.49-2.23,2.68-4.67,4.45-6.72a12.69,12.69,0,0,0,1.58-2.39c1-1.87,2.15-3.66,3.21-5.5,3.34-5.84,6.46-11.8,10.1-17.47.12-.18.34-.37.16-.69-.79.11-1.6.18-2.39.33-2.46.48-4.9,1-7.41,1.24-3.86.37-7.73.73-11.58,1.17A105.92,105.92,0,0,1,143,96c-7.22.11-14.44,0-21.66-.13a51.09,51.09,0,0,1-5.81-.43ZM227.6,51c-.18-1.43.05-3.21-.26-5a21.29,21.29,0,0,0-2.9-7.14,24.51,24.51,0,0,0-10-9,36.72,36.72,0,0,0-16.82-4.23,32.21,32.21,0,0,0-6.71.87,8.25,8.25,0,0,1-4,.21,1.21,1.21,0,0,0-.8.21,90.55,90.55,0,0,0-9,4.39,37.59,37.59,0,0,0-6.93,4.87,23.94,23.94,0,0,0-6.56,10.64,40,40,0,0,0-1.65,13.19,11.39,11.39,0,0,0,1.3,5.31,23.09,23.09,0,0,0,5.22,6.37A56.17,56.17,0,0,0,179,79a41.56,41.56,0,0,0,13.73,4.52,68,68,0,0,0,11.22.64,12.68,12.68,0,0,0,2.94-.39,25.31,25.31,0,0,0,14.54-10.23c3.48-4.91,4.93-10.6,5.8-16.46C227.55,55.19,227.4,53.27,227.6,51ZM136,93.24c3.1-.12,6.92.13,10.74-.13,2.19-.15,4.36-.36,6.55-.54,3.26-.27,6.53-.64,9.78-1a57.55,57.55,0,0,0,6.41-.8c1.34-.3,2.69-.56,4.05-.79a17.6,17.6,0,0,0,2.39-.43c.75-.24,1-.57.89-1.33a1.89,1.89,0,0,0-1-1.51c-1.43-.79-2.64-1.9-4-2.79-2-1.31-4.1-2.35-6.61-2.12-.32,0-.64,0-1,0-3,0-5.93-.19-8.9-.34-4-.2-8-.09-12-.1-1.45,0-2.9,0-4.35.06-2.72.12-5.42.37-8.13.55a77.1,77.1,0,0,0-8.7,1.2,50.48,50.48,0,0,0-7.75,2.53,14.07,14.07,0,0,0-5.67,3.8c-1.13,1.23-1.13,1.35.52,1.82A46.65,46.65,0,0,0,118,92.82c3.56.31,7.13.43,10.71.42ZM112.54,270.61A80.45,80.45,0,0,0,129,273.49c2.49.24,5,.43,7.49.71,3.86.43,7.75.67,11.63.73,7.89.12,15.79.07,23.68.08.89,0,1.78,0,2.66-.07q3.94-.36,7.89-.78c3-.31,5.9-.65,8.82-1.13a8,8,0,0,0,2.77-.72,26,26,0,0,0-3.35-1.14c-5.41-1.72-11-2.45-16.59-3.41-2.47-.42-5-.64-7.46-.92-3.72-.43-7.46-.64-11.2-.74-5.12-.13-10.24.13-15.36.15a71.65,71.65,0,0,0-10,.61c-4.69.68-9.34,1.51-13.94,2.64A15.26,15.26,0,0,0,112.54,270.61ZM179.78,87l0,0h.06Z" transform="translate(-66.59 -19.92)"/><polygon class="cls-1" points="113.19 67.05 113.21 67.1 113.15 67.09 113.19 67.05"/><path class="cls-1" d="M193.3,79.47a33.73,33.73,0,0,1-14.44-3c-4.62-2-7.32-5.63-8.56-10.44A34.47,34.47,0,0,1,169,56c.29-6.91,2.55-13,8-17.63A36.73,36.73,0,0,1,195,30a27.82,27.82,0,0,1,8.25,0,24.07,24.07,0,0,1,5,1.26,20,20,0,0,0,2.05.56,20.69,20.69,0,0,1,13.14,10,18.08,18.08,0,0,1,2.34,7.75,26.52,26.52,0,0,1,0,6.78,32,32,0,0,1-2.91,9.71,18.68,18.68,0,0,1-8.36,8,47.05,47.05,0,0,1-15.79,5A31.47,31.47,0,0,1,193.3,79.47Zm28.45-32.55c-.08-.24-.18-.62-.33-1A17.09,17.09,0,0,0,218.15,41,22.34,22.34,0,0,0,213,36.74c-.9-.53-.89-.51-1.55.24-.79.91-1.59,1.81-2.4,2.69a111.33,111.33,0,0,0-8.57,9.85,1.54,1.54,0,0,0-.12,2,.68.68,0,0,0,.92.36c1.41-.34,2.83-.63,4.25-.9,5-.94,10-2,14.92-3.23.31-.07.62-.15.92-.24S221.78,47.32,221.75,46.92ZM194.19,76a35.51,35.51,0,0,0,5.52-.41,41.19,41.19,0,0,0,8.77-2.42c.65-.24.66-.33.32-.92-.14-.25-.3-.48-.46-.72a47.78,47.78,0,0,0-4-4.69,43,43,0,0,1-5.68-7.39c-.32-.59-.37-.59-.94-.14a6.81,6.81,0,0,1-2.27,1.33c-1,.25-1.08.86-1.13,1.62,0,.25,0,.5,0,.75A39.55,39.55,0,0,1,193,72.46c-.27,1-.57,1.89-.83,2.85-.16.59-.08.69.53.72S193.86,76,194.19,76ZM191.5,51.87a9.2,9.2,0,0,1,2.75-1.41c.51-.15.57-.49.43-.9a7.16,7.16,0,0,1-.1-3c.33-3.34,1-6.62,1.56-9.94.16-1,.34-2.09.52-3.13.08-.47-.09-.66-.57-.57s-1.12.16-1.68.26a29.48,29.48,0,0,0-9.88,4c-.63.38-1.24.81-1.84,1.25s-.62.5-.19,1.19.69,1.07,1,1.62a59.68,59.68,0,0,0,4.58,6.89C189.15,49.47,190.54,50.43,191.5,51.87ZM199.8,57a3.39,3.39,0,0,0,.72,1.64,50,50,0,0,0,4.84,6,41.17,41.17,0,0,1,5.52,6.83c.31.54.65.37,1.06.19a15.45,15.45,0,0,0,8.82-10c.22-.68.17-.74-.58-.9l-5.48-1.19C209.81,58.48,204.85,57.84,199.8,57Zm-9.25-4a2.14,2.14,0,0,1-1.36-.51,18.79,18.79,0,0,1-5.06-5.52c-1.2-1.84-2.34-3.71-3.53-5.56-.49-.76-.5-.74-1.15-.15-3.67,3.37-5.39,7.71-6.19,12.5-.18,1.05-.11,1.07.92,1.12.53,0,1,.12,1.58.14,4.35.11,8.7.16,13,.49.38,0,.6-.06.71-.44A7.86,7.86,0,0,1,190.55,53ZM175,57.35h-1c-.81,0-.85,0-.77.83a28.87,28.87,0,0,0,1.79,8.15,12.59,12.59,0,0,0,1.83,3.1c.72.93.63.69,1.39.15,1.79-1.27,3.55-2.58,5.26-4A67,67,0,0,0,189.47,60c.22-.22.53-.44.33-.81a4.35,4.35,0,0,1-.43-1.41c-.06-.31-.22-.49-.6-.4a17.63,17.63,0,0,1-3.91.2C181.57,57.62,178.28,57.61,175,57.35Zm25.48-1.8c.85.1,1.65.21,2.45.28,2.92.28,5.82.67,8.7,1.21s6,1.21,9,1.81c.86.18.86.16,1.1-.62a18.86,18.86,0,0,0,.62-8.38c-.09-.61-.13-.64-.76-.51-.14,0-.27.09-.4.12q-6.36,1.63-12.82,2.83l-6.86,1.25c-.34.07-.74.05-.82.51S200.56,55,200.48,55.55Zm-4-5.92a7.54,7.54,0,0,1,1,.08c.66.16,1-.1,1.33-.68a34,34,0,0,1,4.82-6.31c1.92-2.13,3.88-4.22,5.81-6.34a1.61,1.61,0,0,0,.65-1.09c-2.74-.89-5.43-1.9-8.36-1.82a10.6,10.6,0,0,1-1.38,0c-1.07-.07-1.09-.08-1.27,1-.53,3.13-1,6.27-1.57,9.4A36.21,36.21,0,0,1,196.47,49.63Zm-4,11.86c.09-.27,0-.44-.28-.56-.63-.27-.76-.24-1.33.42a51,51,0,0,1-6.54,6.35c-1.46,1.19-3,2.28-4.5,3.39-.65.49-.64.58,0,1.06l.18.11a28.26,28.26,0,0,0,9.3,3.46.42.42,0,0,0,.57-.3c.08-.2.13-.41.2-.61A49.37,49.37,0,0,0,192.51,61.49Zm5.66-7.41c0-.51.14-1-.38-1.23a4.25,4.25,0,0,0-2.35-.5,4.34,4.34,0,0,0-3.7,4.59,1.25,1.25,0,0,0,.1.51,2.93,2.93,0,0,0,3.1,1.08A5.68,5.68,0,0,0,198.17,54.08Z" transform="translate(-66.59 -19.92)"/></svg>