<svg id="Phone" xmlns="http://www.w3.org/2000/svg" viewBox="0 0 24.76 19.23"><defs><style>.cls-1{fill:#fff;}</style></defs><path class="cls-1" d="M3.33,7.49a1.1,1.1,0,0,0,.38.59L11.93,15,3.71,21.94a1.14,1.14,0,0,0-.38.59ZM26.67,22.4a1.23,1.23,0,0,0-.33-.46L18.11,15l8.23-6.93a1.09,1.09,0,0,0,.33-.46Z" transform="translate(-2.64 -5.4)"/><path d="M4,9.17,10.92,15,4,20.86V9.17m22,0V20.82L19.12,15,26,9.2m-.23-3.44H4.21A1.53,1.53,0,0,0,2.68,7.3V22.7a1.53,1.53,0,0,0,1.53,1.54H25.79a1.53,1.53,0,0,0,1.53-1.54V7.3a1.53,1.53,0,0,0-1.53-1.54Zm-.2,17.57H4.45a.51.51,0,0,1-.33-.89L12.94,15,4.12,7.59a.51.51,0,0,1,.33-.89H25.59a.51.51,0,0,1,.33.89L17.1,15l8.82,7.43a.51.51,0,0,1-.33.89Z" transform="translate(-2.64 -5.4)"/><path class="cls-1" d="M4.45,24a1.15,1.15,0,0,1-.74-2l9.23-7.78,1.67,1.41a.64.64,0,0,0,.82,0l1.67-1.41,9.24,7.78a1.16,1.16,0,0,1-.75,2Z" transform="translate(-2.64 -5.4)"/><path d="M17.1,15l8.82,7.43a.51.51,0,0,1-.33.89H4.45a.51.51,0,0,1-.33-.89L12.94,15l1.25,1.06a1.3,1.3,0,0,0,1.66,0L17.1,15m0-1.7-.84.71L15,15.07,13.78,14l-.84-.71L12.1,14,3.29,21.44a1.8,1.8,0,0,0,1.16,3.19H25.59a1.81,1.81,0,0,0,1.17-3.19L17.94,14l-.84-.71Z" transform="translate(-2.64 -5.4)"/><path class="cls-1" d="M15,17a1.93,1.93,0,0,1-1.25-.46L3.71,8.08a1.14,1.14,0,0,1-.35-1.27,1.16,1.16,0,0,1,1.09-.76H25.59a1.16,1.16,0,0,1,1.09.76,1.13,1.13,0,0,1-.34,1.27L16.27,16.56A1.91,1.91,0,0,1,15,17Z" transform="translate(-2.64 -5.4)"/><path d="M25.59,6.7a.51.51,0,0,1,.33.89L17.1,15l-1.25,1.06a1.3,1.3,0,0,1-1.66,0L12.94,15,4.12,7.59a.51.51,0,0,1,.33-.89H25.59m0-1.3H4.45A1.8,1.8,0,0,0,3.29,8.58L12.1,16l1.26,1a2.57,2.57,0,0,0,1.66.61,2.62,2.62,0,0,0,1.67-.61l1.25-1,8.82-7.43a1.8,1.8,0,0,0,.53-2,1.78,1.78,0,0,0-1.7-1.18Z" transform="translate(-2.64 -5.4)"/></svg>