<svg id="Calque_1" data-name="Calque 1" xmlns="http://www.w3.org/2000/svg" viewBox="0 0 193.53 258.64"><defs><style>.cls-1{fill:#984634;}.cls-2{fill:#fff;}.cls-3{fill:#fffdfc;}.cls-4{fill:#fffffd;}</style></defs><path class="cls-1" d="M225,108.12c1.11.13,1.51.54,1.66,1.71a3.92,3.92,0,0,1-.56,2.47,28.72,28.72,0,0,1-3.54,4.6,55.66,55.66,0,0,1-11.66,10.16,32.36,32.36,0,0,0-7.32,7.08,2.06,2.06,0,0,0-.07.26,2.5,2.5,0,0,0,1.12.09c6.25,0,12.5,0,18.75,0a82.15,82.15,0,0,1,14.44,1.4c1.24.21,2.47.49,3.69.77a18.71,18.71,0,0,1,4.77,1.95.69.69,0,0,1,.34.25c.29.7-.05,1.41,0,2.12,0,.38-.26.53-.54.72a15.1,15.1,0,0,1-3,1.43,54.38,54.38,0,0,1-11.77,2.93c-3.73.56-7.4,1.38-11.09,2.1-3.24.63-6.45,1.37-9.68,2.07a1,1,0,0,0-.71.35c1.6.46,3.16.93,4.74,1.37a27.44,27.44,0,0,1,3.86,1.32c2.79,1.27,5.77,2,8.57,3.2a12.3,12.3,0,0,1,1.39.58c3.42,2,7.07,3.53,10.44,5.59a20,20,0,0,1,4.88,3.85,2.81,2.81,0,0,0,1.17.93c.51.17.47.58.4,1a.75.75,0,0,1-.8.7h-1.4a63.76,63.76,0,0,0-7.94.5c-1.14.1-2.29.18-3.44.21a31.56,31.56,0,0,1-8.58-1.35c-1.85-.45-3.59-1.26-5.49-1.54-5.08-.76-10-2.14-15.08-3a60.65,60.65,0,0,1-7.23-1.7c-1-.28-2-.4-2.92-.74a3.51,3.51,0,0,0-.74-.07c-.44,0-.63.16-.75.57-.37,1.2-.51,2.46-.76,3.68a16.85,16.85,0,0,1-1.49,4.6,21.27,21.27,0,0,0-2.14,6.85c-.64,4.09-1.76,8.06-2.79,12-.6,2.33-1.24,4.64-1.77,7a15.88,15.88,0,0,1-1.7,4.29,1.28,1.28,0,0,1-.55.64,15.4,15.4,0,0,1-2.62.53c-.34.06-.45-.29-.51-.58-.2-1.1-.45-2.18-.59-3.28a64.48,64.48,0,0,0-1.48-7.16A57.94,57.94,0,0,1,172.63,179c-.09-2-.35-4-.32-6-.46,0-.47.37-.59.59A150.18,150.18,0,0,0,163,192.89c-1.38,3.62-2.72,7.26-3.91,11A197.41,197.41,0,0,0,152.34,230c-.91,5.19-1.87,10.37-2.66,15.57-.33,2.23-.52,4.48-.74,6.73-.1.95-.06,1,.83,1.35,1.28.55,2.58,1.08,3.86,1.65a1.69,1.69,0,0,0,1.62,0c6.07-3.12,12.62-4.68,19.28-5.87,2.68-.48,5.36-1,8.07-1.23s5.23-.3,7.84-.43a47.2,47.2,0,0,1,10.61.82c3.88.71,7.78,1.28,11.65,2.07a59.32,59.32,0,0,1,10.12,2.89c1.8.72,3.66,1.26,5.5,1.86a20.75,20.75,0,0,1,7.23,4,33.8,33.8,0,0,0,5.59,3.43,9.21,9.21,0,0,1,2.46,1.71,6.63,6.63,0,0,1,.93,1.91c.14.29-.07.47-.25.65-1.23,1.21-2.36,2.51-3.53,3.78a3.11,3.11,0,0,1-3.19.47l-3.87-2.11a16.72,16.72,0,0,1-2.95-2,18.66,18.66,0,0,0-7.46-3.94,48.66,48.66,0,0,1-5.51-1.82,55,55,0,0,0-11.21-3q-7-1.18-14-2.3a20.36,20.36,0,0,0-3.11-.24c-2.37,0-4.74-.05-7.1.15s-4.48.54-6.71.91c-3.88.65-7.76,1.33-11.58,2.33-.2.05-.43,0-.59.27,0,.29.32.32.53.42,1.67.82,3.34,1.66,5,2.43a28.1,28.1,0,0,1,7.41,4.93,15.76,15.76,0,0,0,3.76,2.67,9.4,9.4,0,0,1,2.57,1.76c.69.69.68.8,0,1.46-1.24,1.19-2.5,2.36-3.74,3.57-.74.72-1.47,1.47-2.16,2.25-.37.42-.62.37-1.07.11a29.66,29.66,0,0,1-5.72-4.18,21.08,21.08,0,0,0-5.47-3.6q-3.59-1.62-7.07-3.43c-3.19-1.66-6.53-3-9.85-4.33A103.85,103.85,0,0,1,136.63,258,88.08,88.08,0,0,0,126.9,253a29.24,29.24,0,0,0-8.14-1.9c-2.54-.26-5.08-.37-7.63-.45a23.59,23.59,0,0,1-3.73-.45,33.28,33.28,0,0,0-9.54-.56,36.12,36.12,0,0,0-13.46,3.46c-3,1.55-6.23,2.77-9.27,4.31a132.48,132.48,0,0,0-17.4,10.31,8.49,8.49,0,0,1-3.1,1.42c-.87.19-.84.07-1.19-.71a2.09,2.09,0,0,1,.57-2.51,12.29,12.29,0,0,1,1.18-1.1,101.34,101.34,0,0,1,12-8c2.23-1.31,4.56-2.43,6.88-3.57,2.64-1.31,5.24-2.67,7.83-4.07A60.72,60.72,0,0,1,98.62,243a18.07,18.07,0,0,1,2.66-.33c2.58-.13,5.15-.3,7.73-.42.71,0,1.43,0,2.15,0,.37,0,.53-.14.53-.5,0-.11,0-.21,0-.32-.06-2.3.13-4.6.23-6.89.17-3.76.46-7.52.76-11.28.22-2.64.46-5.29.67-7.93.28-3.44.74-6.85,1.17-10.27.61-4.87,1.42-9.72,2.39-14.54,1.41-6.93,3.07-13.79,4.79-20.65s3.76-13.7,6.14-20.4c.33-.94.71-1.88,1.05-2.82.08-.23.26-.44.12-.77-1.94-.09-3.9-.16-5.87-.27a28.65,28.65,0,0,1-4.79-.6c-.43-.1-.81-.3-1.22-.42a1.24,1.24,0,0,1-.9-1.2,2.88,2.88,0,0,1,1.23-2.92,22,22,0,0,1,6-3.51,60.81,60.81,0,0,1,10.16-2.76,1.4,1.4,0,0,0,1.14-1c1.43-3.21,2.65-6.52,4.3-9.63,1.09-2.06,2.23-4.1,3.35-6.14.43-.77.42-.76-.3-1.25s-1.58-1.12-2.36-1.69a6.48,6.48,0,0,1-1.85-2.34,2.22,2.22,0,0,1,0-1.68.8.8,0,0,1,.85-.55,14.65,14.65,0,0,1,3.74.1c.93.26,1.91.32,2.87.49a1,1,0,0,0,1.18-.64c1.2-2.29,2.43-4.56,3.67-6.83a53.36,53.36,0,0,1,2.91-4.66,15.26,15.26,0,0,0,1.77-3.31c.07-.1.16-.22,0-.31s-.15.08-.23.12c-1.22,1-2.46,2.08-3.67,3.15a49.32,49.32,0,0,1-21.13,10.69,69.79,69.79,0,0,0-13.42,4.9c-4.17,2-8.48,3.72-12.81,5.35a14.2,14.2,0,0,1-3.59,1.1c-.66.07-1.38.15-1.78-.44s-.08-1.24.28-1.8c.25-.39.51-.78.8-1.15,1.28-1.64,2.49-3.34,3.64-5.08a38.83,38.83,0,0,1,4-4.79c2.43-2.65,4.69-5.44,7.36-7.86,3.89-3.52,8-6.83,12.08-10.07a58.41,58.41,0,0,1,10.43-6.84,129.74,129.74,0,0,1,13-5.54,1.55,1.55,0,0,0,.77-.35c0-.19-.15-.24-.27-.26-1.73-.3-3.38-1-5.14-1.12-3.18-.31-6.35-.66-9.53-.91-4.45-.34-8.85-.91-13.25-1.61s-8.94-1.37-13.43-1.89c-3.45-.4-6.91-.82-10.37-1.2-2.35-.27-4.72-.43-7.07-.73-2.56-.33-5.11-.75-7.66-1.16a25.11,25.11,0,0,1-3.45-1.19.59.59,0,0,1-.44-.65,2,2,0,0,1,.6-1.66.6.6,0,0,1,.08-.08c2.71-2.12,5.4-4.3,8.68-5.51a59.22,59.22,0,0,1,11-2.82c3.08-.51,6.18-.91,9.26-1.39,2.1-.33,4.22-.39,6.34-.51a95.6,95.6,0,0,1,9.58-.24c4.26.19,8.54.18,12.79.64,2.14.23,4.26.61,6.39.93a1.8,1.8,0,0,0,.95,0,.36.36,0,0,0,0-.4,19.56,19.56,0,0,1-2.75-5.11,25.36,25.36,0,0,0-4.31-6.66,81.77,81.77,0,0,0-6.17-6.32c-3.55-3.37-6.68-7.12-10-10.73a3.11,3.11,0,0,1-.79-3,2.42,2.42,0,0,1,2.24-2,5,5,0,0,1,2.1.36c1.6.55,3.11,1.32,4.67,2,4.7,1.95,8.92,4.76,13.25,7.38a20.07,20.07,0,0,1,4.34,3.84c2.36,2.56,4.37,5.43,6.83,7.89s4.44,4.89,6.74,7.26c.07.07.18.11.33.22a3.06,3.06,0,0,0,.6-1.21,49.08,49.08,0,0,1,6.49-11.87,31.15,31.15,0,0,1,14-10.39,17.56,17.56,0,0,0,2.93-1.33,3.07,3.07,0,0,1,.48-.24,1.29,1.29,0,0,1,1.87,1.33,6.67,6.67,0,0,1-.51,1.86c-1.79,5.46-4,10.75-6.11,16.11-.3.77-.61,1.53-.89,2.31a29.63,29.63,0,0,1-2.63,5.29c-1,1.64-1.86,3.39-2.77,5.11-.11.21-.29.42-.14.75a10.49,10.49,0,0,0,2.94-.29,87.23,87.23,0,0,1,17.61-.94,63.74,63.74,0,0,1,17.28,3.29c2.61.92,5.2,1.88,7.79,2.84a1.44,1.44,0,0,1,1,1.86,1.5,1.5,0,0,1-.79,1,11.18,11.18,0,0,1-1.86.85,48.73,48.73,0,0,1-12.31,3c-3.4.34-6.72,1.16-10.09,1.67-5.39.82-10.52,2.55-15.7,4.15a1.72,1.72,0,0,0-.89.41,3.44,3.44,0,0,0,1.34.63,50.75,50.75,0,0,1,9.92,5.15,148.41,148.41,0,0,1,12.78,8.58c3.91,3.11,8.13,5.79,12.15,8.74a49.66,49.66,0,0,1,7.35,6.14c.81.9,1.43,1.81,1,3.09a5.35,5.35,0,0,1-3.66.44c-5.25-1-10.47-2.12-15.6-3.59-2.41-.69-4.87-1.21-7.21-2.12-1.37-.54-2.75-1.06-4.15-1.49-2.81-.88-5.61-1.78-8.32-2.93a23.82,23.82,0,0,0-5-1.2.34.34,0,0,0-.41.17c.07.25.31.41.5.6,1.34,1.31,2.69,2.6,4,3.92a16.89,16.89,0,0,1,4.38,7.66A52.66,52.66,0,0,1,191,120.07c.11,2.33-.26,4.65-.29,7a4.83,4.83,0,0,0,0,1.27,1.9,1.9,0,0,0,.34-.21c2.29-2.08,4.74-4,7.18-5.84a89,89,0,0,1,21-12.12A34.17,34.17,0,0,1,225,108.12Zm-44.18,16.43s0,.22.14,0l-.15,0c.07-.14,0-.24-.12-.32-.83-1.74-1.64-3.5-2.52-5.22a91.64,91.64,0,0,0-5.56-9.09,54.69,54.69,0,0,1-4.16-6.92,51.84,51.84,0,0,0-2.37-4.71A18.11,18.11,0,0,1,164.27,94a14.61,14.61,0,0,0-.87-2.31c-.11-.24-.14-.58-.56-.62-3,6.92-6.4,13.68-8.91,20.73a.71.71,0,0,0,.56.32,74.15,74.15,0,0,1,10,3.09A68.14,68.14,0,0,1,175,120.76c1.9,1.16,3.74,2.41,5.61,3.61A.24.24,0,0,0,180.85,124.55Zm-14.43,44c-.42-.17-.68.15-1,.33-2.57,1.65-5.24,3.12-7.86,4.67-2.26,1.33-4.5,2.7-6.65,4.19s-4.52,3.05-6.65,4.77a55.9,55.9,0,0,1-5.09,3.43,15.67,15.67,0,0,1-2.19,1.14,1.51,1.51,0,0,1-2.19-1.27,6.22,6.22,0,0,1,.27-1.48,22.86,22.86,0,0,1,1.74-4.51,10.89,10.89,0,0,0,.77-1.66,19.69,19.69,0,0,1,2.54-4.85c2.49-3.51,4.93-7.06,7.73-10.35a77.16,77.16,0,0,1,12.87-11.89,49,49,0,0,1,5-3c.37-.21.87-.3,1.05-.85-1.2-.17-2.33-.33-3.47-.47-3-.37-6.08-.4-9.12-.61-4.08-.27-8.19.09-12.28-.21a.88.88,0,0,0-1,.7c-.64,1.83-1.38,3.62-2,5.45-2.89,8.54-5.33,17.19-7.39,26-1.47,6.25-2.78,12.53-3.83,18.86-.57,3.43-1.08,6.87-1.5,10.31-.36,3-.73,5.9-1,8.86s-.52,5.85-.75,8.78c-.2,2.42-.28,4.86-.51,7.28-.32,3.36-.24,6.73-.56,10.09,0,.45.17.63.62.66.64,0,1.28.14,1.93.21a25.55,25.55,0,0,1,9.59,3c1.41.79,2.85,1.53,4.28,2.27,1.09.56,1.07.54,1.22-.61.16-1.32.34-2.63.56-3.94.74-4.27,1.48-8.55,2.26-12.82.88-4.83,1.85-9.64,3.14-14.39A223,223,0,0,1,154.78,193a151.37,151.37,0,0,1,9.74-21.09,31,31,0,0,0,1.89-3.38s.22-.05,0-.13C166.4,168.38,166.37,168.47,166.42,168.53ZM139.9,181.45a5.61,5.61,0,0,0,1.36-.84c1.42-.86,2.54-2.1,3.89-3.06,7.14-5,14.78-9.25,22.27-13.73a31.38,31.38,0,0,0,5.55-3.67,1.66,1.66,0,0,1,2.45.29,3.27,3.27,0,0,1,.68,2.32c-.12,1.53-.35,3.07-.38,4.6a93.55,93.55,0,0,0,.22,11c.12,1.11.08,2.22.22,3.33a117,117,0,0,0,2.67,12.43,2.88,2.88,0,0,0,.24-.51c.76-2.91,1.5-5.83,2.27-8.75.68-2.6,1.34-5.21,1.77-7.87a23.65,23.65,0,0,1,2.52-8,10.79,10.79,0,0,0,1-3c.42-2,.75-3.94,1.3-5.87.28-1,.67-1.88,1.82-2a13,13,0,0,1,4.81.24c3.09.82,6.17,1.69,9.31,2.24,5.16.9,10.21,2.3,15.39,3.1,2,.31,3.92,1.16,5.9,1.66a29,29,0,0,0,8.38,1.22c1,0,1.95-.13,3.12-.21-.34-.24-.47-.35-.62-.44-3.35-2-6.92-3.49-10.28-5.42a4.41,4.41,0,0,0-.59-.26c-5-1.71-9.75-3.83-14.8-5.24-3.26-.9-6.56-1.59-9.88-2.18-1.48-.26-1.53-.28-1.9-1.8a2,2,0,0,1,.2-1.42,2.6,2.6,0,0,1,2.35-1.26c2.38-.31,4.74-.8,7.1-1.23,5.26-1,10.43-2.32,15.69-3.25,2.61-.46,5.2-1,7.83-1.43a54,54,0,0,0,8.5-1.88c.22-.06.5-.05.55-.41l-1-.28a68.24,68.24,0,0,0-8.16-1.42,70.75,70.75,0,0,0-9.43-.71c-7,.06-14,0-21,0-.58,0-1.15,0-1.73-.06a.79.79,0,0,1-.73-.54,2.7,2.7,0,0,1,1-3.51,19.86,19.86,0,0,0,2.93-3,21.52,21.52,0,0,1,4.12-4.08c.92-.68,1.83-1.39,2.78-2a61.16,61.16,0,0,0,12.13-10.92,8.45,8.45,0,0,0,1.38-1.88,1.35,1.35,0,0,0-.32-.06c-.21.06-.41.14-.62.21a73.88,73.88,0,0,0-13.57,6.5c-6.78,4.15-13.28,8.69-18.83,14.44a.88.88,0,0,1-1,.26c-.76-.24-1.44-.68-2.2-.88a11.64,11.64,0,0,1-4.7-2.54,60.27,60.27,0,0,0-8.58-6.13,78.61,78.61,0,0,0-8.29-4.58,73.12,73.12,0,0,0-19.17-5.52,5.42,5.42,0,0,0-2.08-.22c0,.28.16.34.31.43.65.37,1.31.75,2,1.09a30.22,30.22,0,0,1,7.4,4.95,37.8,37.8,0,0,0,4.16,3.42q3.75,2.72,7.33,5.66a7.69,7.69,0,0,0,2.38,1.45c2.44.82,4.46,2.48,6.83,3.42a.59.59,0,0,1,.38.85c-.17.54-.28,1.11-.44,1.66-.29.93-.3.91-1.27.94-2.44.07-4.87-.13-7.31-.17-6.14-.11-12.28.09-18.42-.18-3.37-.15-6.75-.05-10.13,0a24.7,24.7,0,0,0-3.31.31,58,58,0,0,0-7.91,2,16.79,16.79,0,0,0-5.37,2.67c-.18.13-.49.17-.43.56.37.08.76.17,1.14.23a69.44,69.44,0,0,0,9.77.58c9.37.17,18.74-.16,28.1.46a68.43,68.43,0,0,1,11.41,1.32,1.89,1.89,0,0,1,1.63,1.62c.2.8-.38,1.25-1,1.61-1.36.81-2.7,1.64-4.1,2.38a54.21,54.21,0,0,0-12.74,9.84,75.7,75.7,0,0,0-9.47,11.56,44.15,44.15,0,0,0-3.29,5,14.12,14.12,0,0,0-1.39,4.59l-.11.06h.06S139.88,181.48,139.9,181.45ZM185,28.31c-.19,0-.26-.1-.32-.09-.24.07-.48.14-.71.23a29.38,29.38,0,0,0-8.89,5.6c-4.06,3.66-6.63,8.34-8.89,13.22-.69,1.49-1.29,3-1.89,4.57A1.66,1.66,0,0,1,163,53c-.28.06-.55.15-.83.21a1.15,1.15,0,0,1-1.31-.5,10.16,10.16,0,0,0-.86-1.1c-2.69-2.85-5.18-5.87-8-8.59a6.55,6.55,0,0,1-.8-.87c-1.44-2-3.13-3.75-4.67-5.64a22.16,22.16,0,0,0-6.39-5.37c-.94-.52-1.87-1.07-2.77-1.66a80.79,80.79,0,0,0-12.4-6.23c-.21-.09-.43-.28-.67,0a1,1,0,0,0,.35.65c2.39,2.58,4.53,5.39,7,7.89,2.29,2.29,4.61,4.54,6.87,6.85a29.32,29.32,0,0,1,6.9,9.79,23.53,23.53,0,0,0,3.7,6.52c1.06,1.29,1,1.33.3,2.82-.39.8-.44.87-1.32.57a18.07,18.07,0,0,0-4-.85c-1.74-.19-3.47-.53-5.21-.77-2.31-.31-4.64-.39-7-.5a139.57,139.57,0,0,0-15.17-.09l-4.51.29c-2.37.17-4.7.61-7,.93A80.11,80.11,0,0,0,94,59.49a21.48,21.48,0,0,0-6.44,2.65c-.92.63-1.85,1.25-2.76,1.89-.19.13-.48.2-.43.57a7.53,7.53,0,0,0,.81.24c2.51.43,5,.85,7.56,1.11s4.79.45,7.18.71c2.92.31,5.84.63,8.76,1q5.23.66,10.45,1.41c3.48.5,6.94,1.11,10.43,1.56,5.12.65,10.29.91,15.42,1.49a52,52,0,0,1,7.14,1.49,6.12,6.12,0,0,0,3,.39,2.78,2.78,0,0,1,.75.06.69.69,0,0,1,.74.83,10.87,10.87,0,0,0,0,1.51,1,1,0,0,1-.86,1.14c-1.18.32-2.35.66-3.52,1a107.93,107.93,0,0,0-11.75,4.79,49.83,49.83,0,0,0-10.15,6.06c-4.7,3.62-9.32,7.31-13.7,11.31A90.31,90.31,0,0,0,110,107.8a58.87,58.87,0,0,0-3.88,4.47c-.86,1.22-1.68,2.46-2.52,3.7.34.22.53,0,.71,0,3.31-1.39,6.69-2.64,9.91-4.21a78.85,78.85,0,0,1,15.34-5.58,45.77,45.77,0,0,0,13.57-5.65,58.14,58.14,0,0,0,7.73-6,33.56,33.56,0,0,0,5-5c1.66-2.3,3.72-4.28,5.26-6.67.1-.15.24-.27.34-.42a.85.85,0,0,1,1-.38,2.6,2.6,0,0,0,.74.11.71.71,0,0,1,.78.68c.32,1.51.72,3,1.09,4.5a7.16,7.16,0,0,0,.72,1.9,16.78,16.78,0,0,1,1.41,3.49,17.42,17.42,0,0,0,1.66,3.84,24.73,24.73,0,0,1,2,3.82,13.43,13.43,0,0,0,1.07,2.23c1.23,2,2.41,4.08,3.75,6a67.21,67.21,0,0,1,6.45,11.06,19.19,19.19,0,0,0,4.7,6.35c.2.18.36.47.8.39.09-1.19.21-2.39.26-3.59a49.87,49.87,0,0,0-.87-10.71,15.78,15.78,0,0,0-3.39-7.7,59.88,59.88,0,0,0-4.6-4.69c-1-1-2-1.92-3-3a1.09,1.09,0,0,1-.26-1.17,18.65,18.65,0,0,0,.49-2.09c.09-.44.33-.62.76-.54.85.15,1.7.27,2.54.47,1.25.3,2.5.64,3.78.84a16.5,16.5,0,0,1,4.17,1c4.18,1.84,8.66,2.84,12.88,4.55a16.41,16.41,0,0,0,2.24.76c3.89,1,7.73,2.18,11.66,3l5.16,1.15a1.57,1.57,0,0,0-.73-.9c-.72-.6-1.46-1.17-2.19-1.74-3.8-3-8-5.44-11.75-8.39a157.69,157.69,0,0,0-13.41-9.37,73.38,73.38,0,0,0-8.84-5.13c-1.8-.8-3.65-1.49-5.48-2.24-1.41-.58-1.28-.24-1.21-1.81a3.76,3.76,0,0,0,0-.75c-.08-.68.27-1,.86-1.15.94-.26,1.86-.54,2.79-.83A115.32,115.32,0,0,1,196.85,68c3.12-.47,6.19-1.23,9.34-1.55a42.61,42.61,0,0,0,10.28-2.23c.24-.08.48-.19.76-.29a1.23,1.23,0,0,0-.73-.46c-1.85-.67-3.7-1.36-5.58-2A61.62,61.62,0,0,0,195,58.61a71.41,71.41,0,0,0-9.25.16c-3.65.27-7.29.66-10.93,1a21.46,21.46,0,0,1-3.93,0,7.67,7.67,0,0,1,.55-1.42c2-3.08,3.42-6.48,5.45-9.54a12.65,12.65,0,0,0,1.1-2.21c1.74-4.41,3.49-8.81,5.21-13.23A46,46,0,0,0,185,28.31ZM168,134.06a3,3,0,0,0-1.29-.71,14.16,14.16,0,0,1-4.86-2.91c-.58-.49-1.17-1-1.76-1.42-3-2.35-6.18-4.44-9-7.06-.19-.17-.36-.47-.72-.35-1.49,3.25-4.26,10.85-4.4,12.15C153.24,134.19,160.49,134,168,134.06Z" transform="translate(-53.24 -20.68)"/><path class="cls-2" d="M154.68,94.94c.08,0,.19-.14.23-.12s.06.21,0,.31Z" transform="translate(-53.24 -20.68)"/><path class="cls-3" d="M180.85,124.55a.24.24,0,0,1-.24-.18l.11-.12c.11.08.19.18.12.32Z" transform="translate(-53.24 -20.68)"/><path class="cls-3" d="M180.84,124.57l.15,0c-.11.17-.1,0-.14,0Z" transform="translate(-53.24 -20.68)"/><path class="cls-4" d="M166.42,168.53c0-.06,0-.15,0-.14.19.08,0,.1,0,.13Z" transform="translate(-53.24 -20.68)"/><path class="cls-3" d="M139.9,181.45s0,.06,0,.08h-.06l.11-.06Z" transform="translate(-53.24 -20.68)"/></svg>